<svg width="9" height="9" viewBox="0 0 9 9" fill="none" xmlns="http://www.w3.org/2000/svg">
<g clip-path="url(#clip0_2029_914)">
<path d="M3.60048 7.72895H6.63071C6.91016 7.72895 7.14921 7.5606 7.25022 7.31818L8.26703 4.94451C8.29733 4.86707 8.31417 4.78626 8.31417 4.69872V4.02534C8.31417 3.65498 8.01114 3.35196 7.64078 3.35196H5.51626L5.83612 1.81328L5.84622 1.70554C5.84622 1.56749 5.78898 1.43955 5.69807 1.34864L5.34118 0.995117L3.12238 3.21391C3.00117 3.33512 2.9271 3.50347 2.9271 3.68865V7.05556C2.9271 7.42593 3.23012 7.72895 3.60048 7.72895ZM3.60048 3.68865L5.06173 2.22741L4.61056 4.02534H7.64078V4.69872L6.63071 7.05556H3.60048V3.68865ZM0.906952 3.68865H2.25372V7.72895H0.906952V3.68865Z" fill="#858786"/>
</g>
<defs>
<clipPath id="clip0_2029_914">
<rect width="8.0806" height="8.0806" fill="white" transform="translate(0.570251 0.658447)"/>
</clipPath>
</defs>
</svg>
