<svg width="68" height="58" viewBox="0 0 68 58" fill="none" xmlns="http://www.w3.org/2000/svg">
<path d="M34.1183 10.8895C33.4796 11.0967 33.1247 11.7899 33.4258 12.3902C34.0317 13.5982 34.9216 14.6528 36.028 15.4618C37.4659 16.5131 39.1987 17.0979 40.9873 17.1354C42.776 17.1728 44.5324 16.6612 46.0141 15.671C47.1542 14.9092 48.0885 13.8929 48.7458 12.7114C49.0723 12.1245 48.7469 11.4164 48.1172 11.1824C47.4948 10.9511 46.812 11.2738 46.4593 11.8362C45.9998 12.5688 45.3869 13.2017 44.6568 13.6896C43.5903 14.4023 42.3261 14.7705 41.0387 14.7436C39.7513 14.7166 38.5041 14.2957 37.4692 13.539C36.7614 13.0214 36.1767 12.3642 35.7492 11.6139C35.4201 11.0363 34.7505 10.6843 34.1183 10.8895Z" fill="#D87023"/>
<path d="M40.0607 7.77202C40.8542 8.5537 42.0293 10.6713 41.4298 11.2649C40.8303 11.8585 38.6833 10.7033 37.8898 9.92161C37.0964 9.13993 36.9391 8.02504 37.5386 7.43145C38.1381 6.83785 39.2673 6.99033 40.0607 7.77202Z" fill="#009F79"/>
<path d="M43.3202 9.20786C42.788 9.76167 42.0182 11.2438 42.4429 11.6419C42.8676 12.0401 44.3261 11.2035 44.8583 10.6497C45.3905 10.0959 45.4776 9.32414 45.0529 8.926C44.6282 8.52785 43.8524 8.65405 43.3202 9.20786Z" fill="#009F79"/>
<path d="M11.419 7.67011C13.2114 7.67011 14.8528 8.03262 16.3431 8.75764C17.8535 9.46252 18.6088 10.2782 18.6088 11.2046C18.6088 11.6074 18.4678 11.9497 18.1858 12.2317C17.924 12.5136 17.6018 12.6546 17.2192 12.6546C16.8365 12.6546 16.4539 12.5036 16.0712 12.2015C15.6886 11.8994 15.316 11.5671 14.9535 11.2046C14.6111 10.8219 14.0573 10.4796 13.292 10.1775C12.5468 9.87537 11.6607 9.72433 10.6336 9.72433C8.3377 9.72433 6.52515 10.4493 5.19596 11.8994C3.8869 13.3293 3.23237 15.2828 3.23237 17.7599C3.23237 20.2169 3.95739 22.3416 5.40742 24.134C6.85745 25.9264 8.69014 26.8226 10.9055 26.8226C13.1409 26.8226 15.175 25.7553 17.0077 23.6205C17.4105 23.1371 17.7025 22.8955 17.8838 22.8955C18.0852 22.8955 18.2362 22.966 18.3369 23.1069C18.4577 23.2278 18.5181 23.4191 18.5181 23.6809C18.5181 23.9427 18.3067 24.3656 17.8838 24.9497C17.481 25.5136 16.9271 26.0976 16.2223 26.7018C15.5375 27.2859 14.6312 27.7994 13.5034 28.2425C12.3958 28.6654 11.2378 28.8769 10.0294 28.8769C7.37101 28.8769 5.15568 27.9303 3.38341 26.0372C1.63129 24.1441 0.755226 21.7073 0.755226 18.7266C0.755226 15.7259 1.76219 13.1379 3.77613 10.9629C5.81021 8.76771 8.35784 7.67011 11.419 7.67011ZM31.8781 24.3757C31.9989 24.9598 32.2607 25.4834 32.6635 25.9466C33.0865 26.3897 33.2979 26.8428 33.2979 27.306C33.2979 27.7692 33.1368 28.1518 32.8146 28.4539C32.4923 28.7359 32.1399 28.8769 31.7573 28.8769C31.3746 28.8769 31.0625 28.8064 30.8208 28.6654C30.5791 28.5244 30.3777 28.313 30.2166 28.031C29.9951 27.6081 29.8239 27.0945 29.703 26.4903L28.3738 20.1767C28.1725 19.2502 27.8502 18.5152 27.4072 17.9714C26.9842 17.4276 26.3196 17.1558 25.4134 17.1558C24.5272 17.1558 23.8324 17.4679 23.3289 18.0922C22.8456 18.6964 22.5939 19.361 22.5737 20.086C22.7348 24.8591 22.8154 27.3866 22.8154 27.6685C22.8154 27.9303 22.6945 28.2022 22.4529 28.4841C22.2112 28.746 21.899 28.8769 21.5164 28.8769C21.1337 28.8769 20.8014 28.746 20.5195 28.4841C20.2577 28.2022 20.1268 27.7491 20.1268 27.1247C20.1268 26.5004 20.1771 25.0202 20.2778 22.684C20.3785 20.3277 20.4289 18.5051 20.4289 17.2162C20.4289 15.9273 20.3785 14.1953 20.2778 12.0202C20.1771 9.84516 20.1268 8.44548 20.1268 7.82116C20.1268 7.19684 20.2577 6.7437 20.5195 6.46175C20.8014 6.1798 21.1337 6.03882 21.5164 6.03882C21.899 6.03882 22.2112 6.1798 22.4529 6.46175C22.6945 6.72356 22.8154 7.16663 22.8154 7.79095C22.8154 8.39513 22.765 9.82502 22.6643 12.0806C22.5838 14.3161 22.5435 16.1488 22.5435 17.5787C23.7317 15.8064 25.1012 14.9203 26.6519 14.9203C28.7666 14.9203 30.126 16.3401 30.7302 19.1798L31.8781 24.3757ZM36.9306 18.636C36.0444 19.5221 35.6014 20.6097 35.6014 21.8986C35.6014 23.1875 36.0444 24.2851 36.9306 25.1914C37.8368 26.0775 38.9244 26.5206 40.1931 26.5206C41.4821 26.5206 42.5595 26.0775 43.4255 25.1914C44.2915 24.2851 44.7245 23.1875 44.7245 21.8986C44.7245 20.6097 44.2915 19.5221 43.4255 18.636C42.5595 17.7499 41.4821 17.3068 40.1931 17.3068C38.9244 17.3068 37.8368 17.7499 36.9306 18.636ZM38.1389 28.8769C36.85 28.8769 35.7725 28.3734 34.9066 27.3664C34.0406 26.3594 33.6076 25.1007 33.6076 23.5903C33.6076 22.0597 34.0808 20.5895 35.0274 19.1798C35.9739 17.7499 37.0816 16.6825 38.3504 15.9776C39.6192 15.2727 40.898 14.9203 42.1869 14.9203C43.4759 14.9203 44.5533 15.4238 45.4193 16.4307C46.2853 17.4377 46.7183 18.7065 46.7183 20.2371C46.7183 21.7475 46.245 23.2177 45.2985 24.6476C44.3519 26.0574 43.2443 27.1147 41.9755 27.8195C40.7067 28.5244 39.4278 28.8769 38.1389 28.8769ZM52.0162 28.8769C51.6537 28.8769 51.3315 28.7258 51.0495 28.4237C50.7877 28.1015 50.5863 27.7189 50.4453 27.2758C49.1967 23.2076 48.0991 20.1666 47.1525 18.1527C46.7699 17.2867 46.5786 16.6523 46.5786 16.2495C46.5786 15.8467 46.6893 15.5245 46.9109 15.2828C47.1324 15.0411 47.4144 14.9203 47.7567 14.9203C48.2804 14.9203 48.7033 15.313 49.0255 16.0984C49.3679 16.8839 49.9821 18.495 50.8683 20.9319C51.7745 23.3486 52.3183 24.849 52.4996 25.433C52.6808 25.9969 52.8016 26.3594 52.8621 26.5206L52.9527 26.8226C53.5166 26.44 54.151 25.6445 54.8559 24.4361C55.5809 23.2278 56.0743 22.0295 56.3361 20.8413C55.9535 19.8141 55.5809 18.8978 55.2184 18.0922C54.8559 17.2665 54.6746 16.6523 54.6746 16.2495C54.6746 15.8467 54.7854 15.5245 55.0069 15.2828C55.2284 15.0411 55.5104 14.9203 55.8528 14.9203C56.3764 14.9203 56.7993 15.313 57.1215 16.0984C57.4639 16.8839 58.0782 18.495 58.9643 20.9319C59.8706 23.3486 60.4143 24.849 60.5956 25.433C60.7768 25.9969 60.8977 26.3594 60.9581 26.5206L61.0487 26.8226C61.7737 26.3393 62.5491 25.2921 63.3748 23.6809C64.2207 22.0496 64.6436 20.5794 64.6436 19.2704C64.6436 18.8273 64.5228 18.3037 64.2811 17.6995C64.0394 17.0752 63.9186 16.5919 63.9186 16.2495C63.9186 15.9071 64.0495 15.605 64.3113 15.3432C64.5932 15.0613 64.9658 14.9203 65.429 14.9203C65.8922 14.9203 66.2648 15.1418 66.5468 15.5849C66.8488 16.0279 66.9999 16.7731 66.9999 17.8204C66.9999 18.8676 66.6475 20.2874 65.9426 22.0798C65.2578 23.8722 64.3616 25.4532 63.254 26.8226C62.1463 28.1921 61.0991 28.8769 60.1122 28.8769C59.4275 28.8769 58.9039 28.3432 58.5414 27.2758C58.4608 27.0543 58.2795 26.5004 57.9976 25.6143L57.2424 23.409C56.4972 24.9598 55.6514 26.2587 54.7048 27.306C53.7583 28.3532 52.8621 28.8769 52.0162 28.8769Z" fill="#353542"/>
<path d="M11.5399 44.9816C11.6808 45.3441 11.9729 45.8375 12.4159 46.4618C12.8791 47.066 13.1107 47.5594 13.1107 47.9421C13.1107 48.3247 13.01 48.6369 12.8086 48.8785C12.6072 49.1001 12.3354 49.2108 11.993 49.2108C11.1673 49.2108 10.4322 48.3549 9.78773 46.6431L9.54606 45.9785C8.51895 48.1334 6.97829 49.2108 4.92407 49.2108C3.89697 49.2108 3.04104 48.8886 2.35631 48.2442C1.69171 47.5796 1.35941 46.7538 1.35941 45.767C1.35941 44.2364 1.88303 42.9173 2.93028 41.8096C3.97752 40.702 5.347 40.1079 7.03871 40.0273C6.63592 39.3224 6.18279 38.7988 5.6793 38.4564C5.19596 38.0939 4.75289 37.8825 4.3501 37.822C3.94732 37.7616 3.56467 37.7314 3.20216 37.7314C2.85979 37.7113 2.58791 37.6307 2.38651 37.4897C2.18512 37.3488 2.08442 37.0769 2.08442 36.6741C2.08442 36.2512 2.24554 35.9088 2.56777 35.647C2.91014 35.3852 3.31293 35.2543 3.77613 35.2543C5.08519 35.2543 6.37411 35.9088 7.64289 37.2179C8.91167 38.5269 10.0193 40.5811 10.9659 43.3805L11.5399 44.9816ZM6.28348 41.6284C5.55846 41.6284 4.90394 41.87 4.31989 42.3534C3.75599 42.8367 3.47404 43.4611 3.47404 44.2264C3.47404 44.9917 3.72578 45.6361 4.22927 46.1597C4.75289 46.6632 5.37721 46.915 6.10223 46.915C6.82724 46.915 7.45157 46.6632 7.97519 46.1597C8.49881 45.6361 8.76062 45.0219 8.76062 44.317C8.76062 43.8135 8.67 43.3503 8.48874 42.9274C8.30749 42.4843 8.19672 42.2124 8.15644 42.1117C7.63282 41.7895 7.0085 41.6284 6.28348 41.6284ZM14.1676 54.2558C14.369 53.4703 14.5603 52.3123 14.7415 50.7817C14.9429 49.2511 15.0436 47.499 15.0436 45.5253C15.0436 43.5517 14.953 40.8429 14.7718 37.3991H13.8353C13.0498 37.3991 12.6571 37.0567 12.6571 36.372C12.6571 35.6873 13.0498 35.3449 13.8353 35.3449C14.2381 35.3449 14.5401 35.355 14.7415 35.3751C14.8221 32.8577 15.7687 30.733 17.5812 29.001C19.4139 27.2489 21.2466 26.3728 23.0792 26.3728C23.8043 26.3728 24.3984 26.5037 24.8616 26.7655C25.3449 27.0273 25.5866 27.41 25.5866 27.9135C25.5866 28.3968 25.4456 28.7795 25.1637 29.0614C24.9019 29.3232 24.64 29.4541 24.3782 29.4541C24.1164 29.4541 23.6633 29.3434 23.0188 29.1218C22.3744 28.8802 21.74 28.7593 21.1157 28.7593C19.867 28.7593 18.7996 29.3132 17.9135 30.4208C17.0274 31.5083 16.5843 32.8174 16.5843 34.348V35.4959H17.551L21.7198 35.2543C22.5053 35.2543 22.898 35.6268 22.898 36.372C22.898 37.1172 22.5053 37.4897 21.7198 37.4897L17.551 37.2481C17.1079 37.2481 16.7857 37.2581 16.5843 37.2783C16.6246 39.4936 16.7152 41.9808 16.8562 44.7399C17.0173 47.499 17.0978 50.2178 17.0978 52.8964C17.0978 56.1589 16.4635 57.7902 15.1947 57.7902C14.3085 57.7902 13.8655 57.2162 13.8655 56.0683C13.8655 55.6655 13.9662 55.0613 14.1676 54.2558ZM26.2934 41.9305L26.5351 47.3983C26.5351 47.9421 26.3941 48.3851 26.1122 48.7275C25.8504 49.0497 25.5281 49.2108 25.1455 49.2108C24.7628 49.2108 24.4507 49.0598 24.209 48.7577C23.9673 48.4355 23.8465 48.0025 23.8465 47.4587C23.8465 46.915 23.8969 46.1396 23.9975 45.1326C24.1989 43.1187 24.2996 41.4169 24.2996 40.0273C24.2996 39.4231 24.1083 38.8491 23.7257 38.3054C23.3632 37.7415 23.1819 37.238 23.1819 36.7949C23.1819 36.3519 23.3329 35.9894 23.635 35.7074C23.9371 35.4053 24.2795 35.2543 24.6621 35.2543C25.6691 35.2543 26.1726 36.0498 26.1726 37.6408V38.8189C26.7768 37.7314 27.5018 36.8654 28.3477 36.221C29.1935 35.5765 29.9689 35.2543 30.6737 35.2543C31.3786 35.2543 31.9123 35.4355 32.2748 35.798C32.6575 36.1404 32.8488 36.6036 32.8488 37.1876C32.8488 37.7717 32.7078 38.2651 32.4259 38.6679C32.1439 39.0505 31.8418 39.2419 31.5196 39.2419C31.1974 39.2419 30.9456 39.1613 30.7644 39.0002C30.6033 38.8189 30.4824 38.6377 30.4019 38.4564C30.3213 38.255 30.1703 38.0738 29.9487 37.9127C29.7272 37.7314 29.4452 37.6408 29.1029 37.6408C28.5188 37.6408 27.9348 38.0234 27.3508 38.7887C26.7667 39.554 26.4143 40.6013 26.2934 41.9305ZM34.2278 46.8243C34.2278 44.2868 34.1774 42.0614 34.0768 40.1481C33.9761 38.2349 33.9257 37.1071 33.9257 36.7647C33.9257 36.4224 34.0566 36.0901 34.3184 35.7678C34.6004 35.4255 34.9327 35.2543 35.3153 35.2543C35.698 35.2543 36.0101 35.4154 36.2518 35.7376C36.4935 36.0397 36.6143 36.4928 36.6143 37.097C36.6143 37.6811 36.5438 38.678 36.4028 40.0877C36.2619 41.4773 36.1914 42.9274 36.1914 44.4378C36.1914 45.042 36.3122 45.626 36.5539 46.1899C36.8157 46.7337 36.9466 47.2372 36.9466 47.7004C36.9466 48.1435 36.8157 48.506 36.5539 48.7879C36.3122 49.0699 35.9699 49.2108 35.5268 49.2108C35.1039 49.2108 34.7816 48.9692 34.5601 48.4858C34.3386 48.0025 34.2278 47.4487 34.2278 46.8243ZM35.1945 31.8406C34.7514 31.8406 34.399 31.7198 34.1372 31.4781C33.8754 31.2365 33.7445 30.884 33.7445 30.4208C33.7445 29.9576 33.9056 29.5649 34.2278 29.2427C34.55 28.9003 34.9327 28.7291 35.3757 28.7291C35.8188 28.7291 36.1712 28.86 36.4331 29.1218C36.715 29.3635 36.856 29.7159 36.856 30.1791C36.856 30.6424 36.6848 31.0351 36.3424 31.3573C36.0202 31.6795 35.6376 31.8406 35.1945 31.8406ZM44.9584 37.6106C43.6292 37.6106 42.5417 38.0738 41.6958 39.0002C40.8701 39.9065 40.4572 40.994 40.4572 42.2628C40.4572 43.5315 40.8902 44.609 41.7562 45.4951C42.6424 46.3813 43.7198 46.8243 44.9886 46.8243C46.1164 46.8243 47.1334 46.4115 48.0397 45.5858C48.3619 45.3038 48.6036 45.1628 48.7647 45.1628C48.9258 45.1628 49.0668 45.2233 49.1876 45.3441C49.3085 45.4649 49.3689 45.5958 49.3689 45.7368C49.3689 46.3208 48.7949 47.0459 47.647 47.9119C46.5192 48.7779 45.2303 49.2108 43.7802 49.2108C42.3503 49.2108 41.1017 48.6268 40.0343 47.4587C38.9871 46.2906 38.4634 44.8406 38.4634 43.1086C38.4634 40.8933 39.2992 39.0304 40.9708 37.5199C42.6424 36.0095 44.4851 35.2543 46.499 35.2543C47.3449 35.2543 48.0296 35.4053 48.5533 35.7074C49.097 35.9894 49.3689 36.3619 49.3689 36.8251C49.3689 37.2682 49.2279 37.6307 48.946 37.9127C48.6842 38.1946 48.4223 38.3356 48.1605 38.3356C47.8987 38.3356 47.4456 38.2148 46.8011 37.9731C46.1768 37.7314 45.5626 37.6106 44.9584 37.6106ZM59.715 44.9816C59.856 45.3441 60.148 45.8375 60.5911 46.4618C61.0543 47.066 61.2859 47.5594 61.2859 47.9421C61.2859 48.3247 61.1852 48.6369 60.9838 48.8785C60.7824 49.1001 60.5105 49.2108 60.1682 49.2108C59.3424 49.2108 58.6074 48.3549 57.9629 46.6431L57.7212 45.9785C56.6941 48.1334 55.1535 49.2108 53.0992 49.2108C52.0721 49.2108 51.2162 48.8886 50.5315 48.2442C49.8669 47.5796 49.5346 46.7538 49.5346 45.767C49.5346 44.2364 50.0582 42.9173 51.1054 41.8096C52.1527 40.702 53.5222 40.1079 55.2139 40.0273C54.8111 39.3224 54.358 38.7988 53.8545 38.4564C53.3711 38.0939 52.9281 37.8825 52.5253 37.822C52.1225 37.7616 51.7398 37.7314 51.3773 37.7314C51.035 37.7113 50.7631 37.6307 50.5617 37.4897C50.3603 37.3488 50.2596 37.0769 50.2596 36.6741C50.2596 36.2512 50.4207 35.9088 50.7429 35.647C51.0853 35.3852 51.4881 35.2543 51.9513 35.2543C53.2604 35.2543 54.5493 35.9088 55.8181 37.2179C57.0868 38.5269 58.1945 40.5811 59.1411 43.3805L59.715 44.9816ZM54.4587 41.6284C53.7336 41.6284 53.0791 41.87 52.4951 42.3534C51.9312 42.8367 51.6492 43.4611 51.6492 44.2264C51.6492 44.9917 51.901 45.6361 52.4044 46.1597C52.9281 46.6632 53.5524 46.915 54.2774 46.915C55.0024 46.915 55.6267 46.6632 56.1504 46.1597C56.674 45.6361 56.9358 45.0219 56.9358 44.317C56.9358 43.8135 56.8452 43.3503 56.6639 42.9274C56.4827 42.4843 56.3719 42.2124 56.3316 42.1117C55.808 41.7895 55.1837 41.6284 54.4587 41.6284Z" fill="#353542"/>
</svg>
