<svg width="18" height="12" viewBox="0 0 18 12" fill="none" xmlns="http://www.w3.org/2000/svg">
<path d="M0.75 12C0.533333 12 0.354167 11.9292 0.2125 11.7875C0.0708334 11.6458 0 11.4667 0 11.25C0 11.0333 0.0708334 10.8542 0.2125 10.7125C0.354167 10.5708 0.533333 10.5 0.75 10.5H17.25C17.4667 10.5 17.6458 10.5708 17.7875 10.7125C17.9292 10.8542 18 11.0333 18 11.25C18 11.4667 17.9292 11.6458 17.7875 11.7875C17.6458 11.9292 17.4667 12 17.25 12H0.75ZM0.75 6.75C0.533333 6.75 0.354167 6.67917 0.2125 6.5375C0.0708334 6.39583 0 6.21667 0 6C0 5.78333 0.0708334 5.60417 0.2125 5.4625C0.354167 5.32083 0.533333 5.25 0.75 5.25H17.25C17.4667 5.25 17.6458 5.32083 17.7875 5.4625C17.9292 5.60417 18 5.78333 18 6C18 6.21667 17.9292 6.39583 17.7875 6.5375C17.6458 6.67917 17.4667 6.75 17.25 6.75H0.75ZM0.75 1.5C0.533333 1.5 0.354167 1.42917 0.2125 1.2875C0.0708334 1.14583 0 0.966667 0 0.75C0 0.533333 0.0708334 0.354167 0.2125 0.2125C0.354167 0.0708334 0.533333 0 0.75 0H17.25C17.4667 0 17.6458 0.0708334 17.7875 0.2125C17.9292 0.354167 18 0.533333 18 0.75C18 0.966667 17.9292 1.14583 17.7875 1.2875C17.6458 1.42917 17.4667 1.5 17.25 1.5H0.75Z" fill="#353542"/>
</svg>
