<svg width="182" height="66" viewBox="0 0 182 66" fill="none" xmlns="http://www.w3.org/2000/svg">
<path d="M17.6559 16.9279C17.6312 16.7304 17.6064 16.5823 17.5899 16.4671C17.5734 16.3519 17.5569 16.2038 17.5238 16.0063C17.5816 15.9816 17.7385 15.8911 18.011 15.7512C18.2835 15.6113 18.4404 15.529 18.4982 15.4961H18.6634C18.746 15.5208 18.8863 15.5619 19.0845 15.603C19.2827 15.6442 19.4891 15.6936 19.7121 15.7512C19.935 15.8088 20.1498 15.8581 20.3397 15.8993C20.5296 15.9404 20.6782 15.9733 20.7608 16.0063C20.8186 16.0309 20.9012 16.0639 21.0168 16.0886C21.1324 16.1132 21.1985 16.1462 21.2232 16.1708C21.248 16.1708 21.3058 16.2202 21.3884 16.319C21.471 16.4177 21.5288 16.4671 21.5535 16.4671C21.5783 16.4918 21.6857 16.5494 21.8673 16.6317C22.049 16.7139 22.1564 16.7715 22.1811 16.7962C22.2059 16.8209 22.2059 16.9114 22.1811 17.0513C22.1564 17.1912 22.1564 17.2571 22.1811 17.2571C22.2059 17.3147 22.2967 17.3558 22.4371 17.3805C22.5775 17.4052 22.6601 17.4216 22.6931 17.4216V17.5862C22.8335 17.8084 22.9573 17.9812 23.073 18.1129C23.1886 18.2445 23.2794 18.368 23.3455 18.4914C23.4115 18.6148 23.4693 18.7547 23.5106 18.9111C23.5519 19.0674 23.5767 19.2978 23.5767 19.6023C23.5767 19.9891 23.5767 20.3264 23.5519 20.6062C23.5271 20.886 23.4858 21.2316 23.4033 21.6513L22.8995 35.2537C23.0399 36.5374 23.0977 37.8869 23.0647 39.2941C23.0317 40.7012 23.0234 42.0343 23.0234 43.2933C23.0234 43.3509 23.0234 43.499 22.9986 43.7541C22.9739 44.0092 22.9739 44.1738 22.9739 44.2561C22.9161 44.3137 22.8087 44.4618 22.6601 44.7169C22.5114 44.972 22.4041 45.1366 22.3463 45.2189C22.3463 45.2436 22.2637 45.2929 22.0903 45.367C21.9169 45.4411 21.7435 45.5069 21.5453 45.5727C21.3471 45.6386 21.1572 45.7044 20.959 45.762C20.7608 45.8196 20.637 45.8443 20.5791 45.8443H18.9854C18.8698 45.6221 18.8038 45.4575 18.779 45.3588C18.7542 45.26 18.7294 45.2024 18.7129 45.1942C18.6964 45.186 18.6716 45.2107 18.6303 45.2765C18.5891 45.3423 18.5147 45.4246 18.3991 45.5069C17.978 45.2024 17.6642 44.7992 17.4578 44.3137C17.2513 43.8282 17.1109 43.3427 17.0614 42.8654C16.921 42.3881 16.8384 41.8944 16.8054 41.376C16.7724 40.8576 16.7889 40.3227 16.8467 39.7631L16.5907 40.1005C16.5081 40.2157 16.4503 40.2815 16.4256 40.3062V40.6436L15.3355 41.9026C15.3933 42.0672 15.3355 42.2236 15.1869 42.3635C15.0383 42.5033 14.8401 42.6268 14.6171 42.742C14.3942 42.8572 14.163 42.9477 13.9235 43.0382C13.684 43.1287 13.5106 43.1781 13.395 43.2028C12.8335 43.3674 12.3298 43.499 11.8839 43.5813C11.4379 43.6636 10.9755 43.8611 10.4966 44.1656H7.59813C7.59813 44.1656 7.47433 44.1409 7.30093 44.0998C7.12753 44.0586 7.00363 44.0257 6.92103 43.9928C6.89623 43.9928 6.80543 43.9681 6.66503 43.9105C6.52463 43.8529 6.36773 43.8035 6.20263 43.7624C6.03743 43.7212 5.88053 43.6718 5.74023 43.6142C5.59983 43.5566 5.51723 43.532 5.48423 43.532C4.41893 43.1946 3.51063 42.6844 2.75093 41.9849C1.99123 41.2855 1.38013 40.4708 0.901226 39.5327C0.422226 38.5946 0.0672264 37.5907 -0.172274 36.5209C-0.411774 35.4512 -0.527374 34.3814 -0.527374 33.3199V32.8179C-0.527374 32.8179 -0.502573 32.7356 -0.461273 32.6533C-0.419973 32.5711 -0.386973 32.5134 -0.353973 32.4888C-0.353973 32.4641 -0.329174 32.3736 -0.287874 32.2337C-0.246574 32.0938 -0.213574 31.9374 -0.180574 31.7728C-0.147474 31.6083 -0.122775 31.4519 -0.0979748 31.312C-0.0731748 31.1721 -0.056673 31.0898 -0.056673 31.0569C0.141527 30.3328 0.389226 29.5593 0.703026 28.7364C1.01683 27.9135 1.35543 27.0906 1.73523 26.2677C2.11513 25.4448 2.52793 24.6713 2.97393 23.9472C3.41983 23.223 3.88223 22.5812 4.36113 22.0216C4.44373 21.9393 4.59243 21.7994 4.79883 21.6019C5.00523 21.4044 5.14563 21.281 5.19523 21.2234C5.21993 21.1987 5.33553 21.1411 5.53373 21.0588C5.73193 20.9765 5.93843 20.886 6.16133 20.7873C6.38433 20.6885 6.59073 20.598 6.77243 20.5157C6.95403 20.4334 7.06963 20.3758 7.12753 20.3511C7.15223 20.3264 7.18533 20.2853 7.21003 20.2441C7.23483 20.203 7.26783 20.1783 7.29263 20.1783C7.45783 19.8738 7.67253 19.6517 7.92023 19.5118C7.97803 19.5118 8.11013 19.4706 8.31663 19.3883C8.52303 19.3061 8.66343 19.2485 8.71293 19.2238L9.05153 18.8864C9.10933 18.8617 9.25793 18.7876 9.48913 18.6807C9.72863 18.5655 9.90203 18.4832 10.0176 18.4256L10.1002 18.3844L10.1828 18.4256L10.3066 18.549C10.447 18.549 10.5626 18.5078 10.6452 18.4256V18.549C10.7278 18.3268 10.8682 18.1622 11.0663 18.047C11.2645 17.9318 11.471 17.8495 11.6939 17.7919C11.9169 17.7343 12.1564 17.7014 12.4041 17.685C12.6518 17.6685 12.883 17.6356 13.073 17.578C13.0977 17.578 13.1968 17.5533 13.3702 17.5122C13.5436 17.471 13.651 17.4463 13.7088 17.4463C13.7336 17.4463 13.7996 17.4463 13.8987 17.4216C13.9978 17.3969 14.0721 17.3969 14.1299 17.3969C14.2703 17.3969 14.4024 17.3969 14.5263 17.4216C14.6502 17.4463 14.7575 17.5122 14.8401 17.652H14.1712C14.2868 17.7096 14.5015 17.7837 14.8236 17.8825C15.1456 17.9812 15.3603 18.047 15.4759 18.0717L15.8145 17.9071C15.8145 17.9071 15.831 17.8495 15.8558 17.8248L15.9384 17.7426H16.1035C16.1613 17.8002 16.2687 17.866 16.4173 17.9483C16.5659 18.0306 16.6733 18.1046 16.7311 18.154C16.8962 18.2939 17.0284 18.3597 17.1275 18.3433L17.5651 18.2774V17.2735C17.5651 17.1336 17.5816 17.0102 17.6064 16.895L17.6559 16.9279ZM12.8252 37.9445C13.4693 37.5249 14.1464 37.0476 14.8649 36.4962C15.5833 35.9449 16.3017 35.3195 17.0284 34.5954C17.0284 34.2333 17.0531 33.5832 17.0944 32.6451C17.1357 31.707 17.1853 30.6537 17.2431 29.4852C17.3009 28.3167 17.3587 27.0988 17.4082 25.8398C17.4578 24.5808 17.5073 23.437 17.5321 22.4084C17.3091 22.5482 17.0449 22.6141 16.7559 22.6141C16.4668 22.6141 16.2439 22.6388 16.1035 22.6964C15.575 22.9185 15.0713 23.0831 14.5924 23.1983C14.1134 23.3135 13.6097 23.4617 13.0812 23.6591C12.3545 23.9389 11.6279 24.3504 10.9177 24.8935C10.2076 25.4366 9.53043 26.062 8.90283 26.7779C8.27533 27.4938 7.70553 28.2344 7.20183 29.0162C6.69813 29.7979 6.29343 30.5632 5.97963 31.3203C5.92183 31.4601 5.83933 31.6988 5.72373 32.0279C5.60803 32.3571 5.54203 32.5546 5.51723 32.6122V32.9496L5.43463 33.0319L5.35213 33.1142C5.21173 33.3117 5.14563 33.4598 5.16213 33.575C5.17863 33.6902 5.18693 33.8959 5.18693 34.2004C5.18693 34.6447 5.18693 35.0726 5.21173 35.4759C5.23653 35.8791 5.27773 36.2494 5.37683 36.5868C5.47593 36.9241 5.63282 37.2204 5.86403 37.4837C6.09523 37.747 6.42563 37.9528 6.87153 38.0926H7.49903C7.55683 38.1173 7.60643 38.1667 7.64773 38.2408C7.68903 38.3148 7.69723 38.3724 7.67253 38.43H8.63863L8.72123 38.3477L8.80383 38.2655L8.88633 38.2243L8.96893 38.2655C8.96893 38.2655 9.06803 38.3313 9.17533 38.3889C9.28273 38.4465 9.37353 38.5041 9.43133 38.5535L9.59653 38.718C9.59653 38.718 9.67912 38.6934 9.76163 38.6358C9.84422 38.5782 9.90203 38.5535 9.92683 38.5535C9.95163 38.5535 10.0672 38.5535 10.2654 38.5288C10.4635 38.5041 10.6617 38.5041 10.8764 38.4876C11.0911 38.4712 11.2893 38.4629 11.4875 38.4465C11.6857 38.43 11.8095 38.4218 11.8673 38.4218C11.9251 38.3971 12.0738 38.3148 12.305 38.1914C12.5362 38.068 12.7179 37.9774 12.8335 37.9198L12.8252 37.9445Z" fill="#36D0B8" fill-opacity="0.48"/>
<path d="M27.6969 43.4329C27.6969 43.4329 27.5648 43.4658 27.3832 43.5399C27.2015 43.614 27.0941 43.6304 27.0694 43.6057C26.7638 43.5811 26.5078 43.4905 26.3097 43.3506C26.1115 43.2108 25.9628 43.0544 25.8472 42.8651C25.7316 42.6759 25.6491 42.4784 25.5912 42.2397C25.5334 42.0011 25.4674 41.7707 25.3848 41.5485C25.36 41.5238 25.294 41.4169 25.1949 41.2358C25.0958 41.0548 25.0462 40.9478 25.0462 40.9231V40.7585C25.0462 40.594 25.0297 40.4294 25.005 40.273C24.9802 40.1167 25.0297 40.0015 25.1701 39.9192C25.1701 39.8945 25.1701 39.7546 25.1453 39.5242C25.1206 39.2938 25.1206 39.0387 25.1206 38.7671C25.1206 38.4956 25.1206 38.257 25.0958 38.0348C25.071 37.8126 25.071 37.6892 25.071 37.6562C25.071 37.5163 25.071 37.3271 25.0462 37.0884C25.0215 36.8498 25.0215 36.7181 25.0215 36.6935C25.0215 36.496 25.0215 36.0105 24.9967 35.2287C24.9719 34.447 24.9637 33.5994 24.9306 32.6942C24.8976 31.789 24.8811 30.9497 24.8646 30.1844C24.8481 29.4191 24.8398 28.9336 24.8398 28.7361V21.075C24.8398 20.9351 24.8398 20.6882 24.8646 20.3426C24.8894 19.997 24.8894 19.6267 24.9059 19.2317C24.9224 18.8367 24.9389 18.4664 24.9719 18.1208C25.005 17.7752 25.0132 17.5283 25.0132 17.3884C25.1288 17.2485 25.1784 17.0264 25.1619 16.7219C25.1453 16.4174 25.2279 16.2611 25.3931 16.2611H25.4756C25.5913 16.2611 25.6408 16.3187 25.6408 16.4257C25.8637 16.2858 25.9876 16.0965 26.0206 15.8579C26.0537 15.6192 26.1858 15.504 26.4418 15.504V16.3845C26.64 16.3845 26.8629 16.3269 27.1107 16.2199C27.3584 16.113 27.4575 15.9155 27.4079 15.6357C27.4079 15.5781 27.3584 15.5205 27.2593 15.4464C27.1602 15.3724 27.0941 15.3312 27.0694 15.2983L27.0281 15.216C27.0859 15.216 27.2345 15.216 27.4657 15.1913C27.6969 15.1666 27.8538 15.1584 27.9034 15.1255C27.9282 15.1008 27.9694 15.0679 28.0272 15.0432L28.1924 14.9609H28.3576C28.6135 15.1255 28.7457 15.3065 28.7539 15.504C28.7622 15.7015 28.8448 15.9484 28.9851 16.2611C29.0099 16.2858 29.0512 16.3187 29.0925 16.3434C29.1338 16.3681 29.1585 16.401 29.1585 16.4257C29.1833 16.4257 29.2741 16.4503 29.4145 16.4915C29.5549 16.5326 29.6375 16.5655 29.6705 16.5985C29.6953 16.5985 29.7283 16.6643 29.7531 16.8042C29.7779 16.9441 29.8109 17.0264 29.8357 17.0593H29.9595C30.0421 17.1169 30.0917 17.2321 30.1082 17.4131C30.1247 17.5942 30.1247 17.7999 30.1082 18.0221C30.0917 18.2442 30.0834 18.4417 30.0669 18.6063C30.0504 18.7791 30.0669 18.8614 30.1329 18.8614C30.2486 18.8614 30.3642 18.7956 30.488 18.6721C30.6119 18.5487 30.744 18.4088 30.8679 18.2525L31.2477 17.7917C31.3716 17.6353 31.4789 17.5201 31.5615 17.4378C31.6193 17.3802 31.7267 17.3062 31.8753 17.2074L32.3377 16.9112C32.4946 16.8124 32.635 16.7219 32.7589 16.6396C32.8827 16.5573 32.9736 16.4997 33.0314 16.475C33.2543 16.3351 33.436 16.2858 33.5764 16.3269C33.7168 16.3681 33.8571 16.2529 33.9975 15.9731H38.3245C38.3245 15.9731 38.4319 15.9978 38.5557 16.0389C38.6796 16.08 38.7704 16.113 38.8282 16.1459C38.9934 16.2611 39.2659 16.4092 39.6292 16.6067C39.9925 16.8042 40.2072 16.9112 40.2568 16.9441C40.3394 17.0264 40.5706 17.2321 40.9504 17.553C41.3303 17.8739 41.6276 18.129 41.8505 18.3265C41.9083 18.3841 42.0157 18.5734 42.1891 18.8943C42.3542 19.2153 42.4533 19.4045 42.4863 19.4621C42.5111 19.4868 42.5607 19.528 42.635 19.5856C42.7093 19.6432 42.7423 19.6843 42.7423 19.709C42.7671 19.7666 42.8579 19.9229 42.9983 20.1945C43.1387 20.4661 43.2213 20.6224 43.2543 20.68C43.2873 20.7376 43.3286 20.8528 43.4029 21.0338C43.4773 21.2149 43.5516 21.4206 43.6342 21.6428C43.7167 21.865 43.7993 22.0789 43.8901 22.2929C43.981 22.5068 44.0305 22.6632 44.0553 22.7784C44.0801 22.8607 44.1214 22.9759 44.1792 23.1158C44.237 23.2557 44.2948 23.4038 44.3443 23.5519C44.3939 23.7 44.4517 23.8481 44.493 23.9716C44.5342 24.095 44.559 24.1773 44.559 24.202C44.5838 24.3419 44.6251 24.5311 44.6829 24.7698C44.7407 25.0084 44.7902 25.247 44.8315 25.4775C44.8728 25.7079 44.9141 25.93 44.9554 26.1275C44.9967 26.325 45.0214 26.432 45.0214 26.4649L45.2774 35.13C45.137 35.7471 45.1288 36.3808 45.2527 37.0308C45.3765 37.6809 45.3848 38.2899 45.2774 38.8494C45.2196 39.0716 45.1866 39.3432 45.1701 39.6641C45.1536 39.985 45.1453 40.3142 45.1453 40.6516V42.4948C45.1453 42.6347 45.1205 42.717 45.0627 42.7499L44.8976 42.8322L44.7324 42.9145C44.6746 42.9392 44.6333 43.0297 44.6086 43.1696C44.5508 43.3671 44.4104 43.4988 44.1874 43.5646C43.9645 43.6304 43.8406 43.7785 43.8076 44.0007L43.6837 43.8361L43.3451 44.1735C43.3451 44.1735 43.2213 44.19 43.0479 44.2147C42.8745 44.2394 42.7506 44.2558 42.668 44.2558C42.3625 44.2558 42.0982 44.2558 41.8918 44.2311C41.6854 44.2064 41.4954 44.1653 41.322 44.083C41.1486 44.0007 41 43.8773 40.8596 43.7292C40.7192 43.5811 40.5541 43.3836 40.3559 43.1614C40.3311 43.0791 40.2898 42.9392 40.232 42.7417C40.1742 42.5442 40.1164 42.3385 40.0669 42.1163C40.0173 41.8941 39.9513 41.6802 39.8769 41.4909C39.8026 41.3016 39.7613 41.1535 39.7283 41.0712V38.3475C39.7861 38.3228 39.7944 38.1747 39.7696 37.9113C39.7448 37.648 39.7448 37.4834 39.7696 37.4258C39.7944 37.3682 39.7944 37.2859 39.7448 37.1707C39.6953 37.0555 39.6705 36.9732 39.6375 36.9156H39.5136C39.5136 36.6605 39.5136 36.4466 39.5384 36.2656C39.5632 36.0845 39.6044 35.8788 39.687 35.6566C39.6622 35.6319 39.6705 35.5743 39.7283 35.492C39.7861 35.4097 39.8109 35.3521 39.8109 35.3275C39.8109 35.3028 39.7944 35.1629 39.7696 34.9325C39.7448 34.7021 39.7035 34.4305 39.6622 34.1343C39.621 33.838 39.5714 33.443 39.5136 32.9411L39.5962 32.8588L39.6788 32.7765V32.6119C39.6788 32.3568 39.6292 32.0935 39.5301 31.8137C39.431 31.5339 39.365 31.2706 39.3402 31.0155V29.2134C39.3402 29.0488 39.3237 28.8102 39.2989 28.5057C39.2411 28.086 39.2081 27.5594 39.1916 26.9175C39.175 26.2757 39.1007 25.7572 38.9603 25.3705C38.9356 25.3129 38.8695 25.2059 38.7704 25.0331C38.6713 24.8603 38.6218 24.7698 38.6218 24.7369V24.0703C38.6218 24.0703 38.5888 23.988 38.5144 23.9057C38.4401 23.8234 38.3741 23.7247 38.308 23.6095C38.2419 23.4943 38.1676 23.3955 38.1016 23.2968C38.0355 23.1981 37.9942 23.1322 37.9942 23.1075C37.6887 22.6879 37.3584 22.3998 37.0033 22.2517C36.6482 22.1036 36.194 22.046 35.6408 22.1036C35.2774 22.1036 34.9389 22.2188 34.6333 22.4574C34.3278 22.6961 34.0471 22.9841 33.7911 23.3379C33.5351 23.6918 33.3204 24.0539 33.1387 24.4488C32.9571 24.8438 32.8084 25.1894 32.7011 25.4939C32.5855 25.7737 32.4946 26.1275 32.4038 26.5637C32.313 26.9998 32.2386 27.4524 32.1478 27.9214C32.057 28.3905 31.9827 28.8595 31.9166 29.3039C31.8505 29.7483 31.7845 30.1103 31.7267 30.3901C31.6689 30.5876 31.6111 30.8592 31.5367 31.2048C31.4624 31.5504 31.4046 31.896 31.3468 32.2334C31.289 32.5708 31.2312 32.8752 31.1817 33.155C31.1321 33.4348 31.0991 33.5912 31.0991 33.6158C31.0991 33.6735 31.0991 33.9121 31.0743 34.3235C31.0495 34.735 31.0495 35.2205 31.033 35.7471C31.0165 36.2738 31.0082 36.7922 31.0082 37.2942V42.0669C30.9835 42.1245 30.9257 42.2068 30.8431 42.322C30.7605 42.4372 30.7027 42.5195 30.6779 42.5771C30.6779 42.6018 30.6532 42.6841 30.6119 42.8075C30.5706 42.931 30.5458 43.0133 30.5458 43.0379C30.2403 43.3424 29.9182 43.5481 29.5797 43.6469C29.2411 43.7456 28.853 43.795 28.4071 43.795H27.986C27.986 43.795 27.9034 43.7374 27.8208 43.6304C27.7382 43.5235 27.6804 43.4658 27.6557 43.4658L27.6969 43.4329Z" fill="#36D0B8" fill-opacity="0.48"/>
<path d="M65.5511 44.559C65.4933 44.5014 65.4024 44.3862 65.2786 44.2051C65.1547 44.0241 65.0639 43.9089 65.0061 43.8513C64.9235 43.7361 64.8161 43.6538 64.6923 43.5962C64.5684 43.5386 64.4611 43.4398 64.3785 43.2999C64.2629 43.16 64.1886 42.9955 64.1473 42.798C64.106 42.6005 64.0564 42.4359 63.9986 42.296C63.9739 42.1808 63.9326 42.008 63.8748 41.7694C63.817 41.5307 63.7592 41.2838 63.7096 41.037C63.6601 40.7901 63.594 40.5432 63.5445 40.3046C63.4949 40.066 63.4619 39.8932 63.4619 39.778L63.1233 39.7368C62.9004 40.2964 62.6196 40.6749 62.281 40.8889C61.9425 41.1028 61.5379 41.3744 61.0589 41.7035L60.6378 42.1232C60.5552 42.1479 60.3653 42.1808 60.068 42.2055C59.7707 42.2302 59.6386 42.3701 59.6716 42.6252C59.5312 42.6252 59.2835 42.6252 58.9119 42.6005C58.5403 42.5758 58.3091 42.5758 58.2018 42.5758C58.144 42.5758 58.1027 42.5922 58.0779 42.6169L57.9128 42.6992C57.8549 42.7568 57.7724 42.798 57.6568 42.8227C57.5742 42.8473 57.4999 42.8885 57.4503 42.9461H56.7567C56.3521 42.9461 56.0465 42.9296 55.8566 42.9049C55.8318 42.9049 55.7492 42.8885 55.6254 42.8638C55.5015 42.8391 55.4107 42.8391 55.3529 42.8638L55.229 42.9461H55.0639C54.7583 42.8885 54.4611 42.8062 54.1803 42.691C53.8995 42.5758 53.6023 42.4853 53.2967 42.3948C53.272 42.3948 53.2142 42.3948 53.1316 42.3701C53.049 42.3454 52.9912 42.3454 52.9664 42.3454L52.76 42.1808C52.7022 42.1808 52.6609 42.2137 52.6361 42.2878C52.6113 42.3618 52.5701 42.403 52.5123 42.4359C52.4545 42.4688 52.3554 42.4359 52.215 42.3701C52.0746 42.3042 51.8764 42.115 51.6287 41.8023C51.5461 41.9422 51.48 41.9998 51.4388 41.9669C51.3975 41.9339 51.3562 41.8846 51.3149 41.8023C51.2736 41.72 51.2323 41.6212 51.191 41.506C51.1497 41.3908 51.1002 41.3415 51.0424 41.3415C50.9268 41.2016 50.7864 41.0864 50.6213 40.9876C50.4561 40.8889 50.324 40.7737 50.2414 40.6338C49.0936 39.9096 48.2596 38.8399 47.7393 37.4327C47.2191 36.0256 46.9466 34.5361 46.9218 32.9727C46.9218 32.6106 46.9549 32.1333 47.0292 31.549C47.1035 30.9648 47.1943 30.3723 47.3265 29.7716C47.4586 29.1709 47.5824 28.5949 47.7228 28.0353C47.8632 27.4757 48.0036 27.0314 48.144 26.694C48.1687 26.6364 48.21 26.5294 48.2678 26.3813C48.3256 26.2332 48.3834 26.1344 48.433 26.1097C48.433 26.0851 48.4495 26.0521 48.4743 26.0275L48.5568 25.9452C48.5816 25.8876 48.6229 25.7641 48.6642 25.5666C48.7055 25.3691 48.7303 25.2457 48.7303 25.1881C49.2918 24.0196 50.0597 22.8593 51.0424 21.7155C52.0251 20.5717 52.9912 19.6089 53.9408 18.8272C53.9656 18.8025 54.0399 18.7531 54.1473 18.679C54.2629 18.605 54.3289 18.5556 54.3537 18.5309C54.4115 18.5062 54.5602 18.4075 54.8161 18.2347C55.0721 18.0619 55.2373 17.9384 55.3199 17.8561C55.741 17.5517 56.2282 17.2719 56.7897 17.0168C57.3512 16.7617 57.9293 16.556 58.5321 16.3914C59.1349 16.2268 59.7542 16.0869 60.3818 15.9717C61.0094 15.8565 61.6039 15.7742 62.1654 15.7166C62.281 15.7166 62.4214 15.7413 62.5866 15.7825C62.7517 15.8236 62.8839 15.7825 62.9664 15.6343C62.9912 15.659 62.9912 15.6343 62.9664 15.5274C62.9417 15.4204 62.9251 15.3628 62.9251 15.3381C62.9829 14.5563 62.9912 13.6676 62.9664 12.6555C62.9417 11.6433 62.9417 10.7464 62.9664 9.93172C62.9664 9.84943 62.9251 9.64371 62.8426 9.32278C62.76 9.00185 62.727 8.7879 62.76 8.6727C62.76 8.64801 62.76 8.49989 62.7848 8.23656C62.8095 7.97324 62.8178 7.68523 62.8508 7.38076C62.8838 7.07629 62.9004 6.79651 62.9169 6.54141C62.9334 6.28631 62.9417 6.13819 62.9417 6.08059C62.9417 6.0559 62.9582 5.92424 62.9829 5.70206C63.0077 5.47988 63.0407 5.24124 63.0655 4.99437C63.0903 4.74751 63.1151 4.50887 63.1316 4.30315C63.1481 4.09742 63.1564 3.95753 63.1564 3.90816C63.1811 3.85056 63.2142 3.74358 63.2389 3.57077C63.2637 3.39797 63.2967 3.30745 63.3215 3.27453C63.3793 3.15933 63.4619 3.0935 63.5775 3.06881C63.6931 3.04412 63.7014 2.91246 63.6188 2.69028C63.6766 2.69028 63.7839 2.67382 63.9326 2.64913C64.0812 2.62445 64.1886 2.60799 64.2464 2.60799C64.2711 2.60799 64.3537 2.62445 64.4776 2.64913C64.6014 2.67382 64.684 2.69028 64.7088 2.69028C64.7666 2.69028 64.8574 2.64913 64.9813 2.56685C65.1052 2.48456 65.1877 2.42695 65.2125 2.40227C65.2373 2.40227 65.3199 2.41872 65.4437 2.44341C65.5676 2.4681 65.6502 2.48456 65.6749 2.48456C65.8979 2.45987 66.1126 2.4105 66.3273 2.33644C66.542 2.26238 66.7567 2.26238 66.9796 2.31175C67.0044 2.31175 67.0292 2.31175 67.0457 2.33644C67.0622 2.36112 67.0787 2.36112 67.1118 2.36112H67.1531C67.1531 2.36112 67.2356 2.45164 67.3182 2.55039C67.4008 2.64913 67.4586 2.69851 67.4834 2.69851C67.5081 2.75611 67.5907 2.81371 67.7146 2.86309C67.8384 2.91246 67.921 2.94538 67.9458 2.94538C68.144 3.06058 68.21 3.2087 68.1522 3.40619C68.0944 3.60369 68.0944 3.76827 68.1522 3.90816C68.1522 3.93284 68.177 3.99868 68.2183 4.09742C68.2596 4.19617 68.2926 4.262 68.3256 4.28669C68.3834 4.48418 68.4 4.80511 68.3917 5.24947C68.3834 5.69383 68.4412 6.01476 68.5816 6.21225C68.5816 6.35214 68.5816 6.58255 68.6064 6.90348C68.6312 7.22441 68.6312 7.57002 68.6477 7.94855C68.6642 8.32708 68.6725 8.68093 68.689 9.01831C68.7055 9.3557 68.7137 9.59434 68.7137 9.726C68.7137 9.85766 68.7137 10.1621 68.7385 10.6229C68.7633 11.0837 68.7715 11.6104 68.8046 12.1947C68.8376 12.7789 68.8541 13.4043 68.8706 14.0544C68.8872 14.7045 68.8954 15.3134 68.9119 15.8565C68.9284 16.3996 68.9367 16.8522 68.9532 17.2143C68.9697 17.5764 68.978 17.7739 68.978 17.7985V18.3663C68.978 18.6626 68.978 18.9835 68.9532 19.3291C68.9284 19.6747 68.9284 19.9957 68.9284 20.2919V21.7566C68.9284 22.2422 68.945 22.7688 68.9697 23.3284C68.9945 23.8879 69.0193 24.4146 69.0358 24.9165C69.0523 25.4185 69.0606 25.723 69.0606 25.8382V26.192C69.0606 26.3731 69.0606 26.5706 69.0358 26.7763C69.011 26.982 69.011 27.1795 68.9945 27.3605C68.978 27.5416 68.9697 27.6568 68.9697 27.7144V30.0185C68.9697 30.1008 68.9697 30.2571 68.9945 30.4793C69.0193 30.7015 69.0193 30.9401 69.0358 31.187C69.0523 31.4338 69.0606 31.6725 69.0771 31.8947C69.0936 32.1168 69.1019 32.2732 69.1019 32.3555C69.1266 32.3802 69.1679 32.4625 69.2092 32.5859C69.2505 32.7093 69.2753 32.7998 69.2753 32.8574C69.2753 32.8821 69.2505 32.9644 69.2092 33.0879C69.1679 33.2113 69.1431 33.2936 69.1431 33.3183C69.1184 33.3759 69.1019 33.4335 69.1019 33.4828V33.7379C69.1019 33.993 69.1349 34.1247 69.2092 34.1576C69.2835 34.1905 69.3165 34.2728 69.3165 34.4127V34.495L69.234 34.7501C69.2092 34.8077 69.1927 34.8653 69.1927 34.9394V35.2521C69.2175 35.5894 69.2505 36.0256 69.2753 36.5687C69.3 37.1118 69.3331 37.6467 69.3578 38.1569C69.3826 38.6671 69.4156 39.1196 69.4404 39.4982C69.4652 39.8767 69.4817 40.0742 69.4817 40.1071C69.4817 40.14 69.4817 40.2141 69.5065 40.3375C69.5312 40.461 69.5395 40.5926 69.5725 40.7325C69.6056 40.8724 69.6221 41.0041 69.6386 41.1275C69.6551 41.2509 69.6634 41.3332 69.6634 41.3579C69.6634 41.4155 69.6799 41.5719 69.7047 41.8434C69.7294 42.115 69.7459 42.3125 69.7459 42.4524C69.7707 42.872 69.7707 43.2835 69.7212 43.6867C69.6716 44.0899 69.5478 44.4767 69.3248 44.8387C69.3 44.7811 69.2505 44.7318 69.1762 44.6906C69.1019 44.6495 69.044 44.6166 68.9862 44.5836L68.8211 44.7482C68.8211 44.7482 68.7798 44.847 68.6972 44.9539C68.6146 45.0609 68.5568 45.135 68.5321 45.1597L68.3669 45.3242C68.3669 45.3242 68.2843 45.2584 68.2018 45.2008C68.1192 45.1432 68.0614 45.1021 68.0366 45.0774H67.8302C67.7724 45.0774 67.7146 45.0774 67.6402 45.0527C67.5659 45.028 67.5246 45.028 67.4916 45.028C67.2356 44.9704 67.054 44.9704 66.9218 45.028C66.7897 45.0856 66.6328 45.0856 66.4346 45.028C66.2695 45.0033 66.1291 44.8799 66.0135 44.6742C65.8979 44.4684 65.774 44.4026 65.6336 44.4849L65.5511 44.559ZM55.3859 36.6921C55.3859 36.6921 55.4685 36.7415 55.5511 36.8402C55.6336 36.939 55.6914 37.013 55.7162 37.0706H55.8814C56.0218 37.0953 56.1126 37.0953 56.1539 37.046C56.1952 36.9966 56.319 36.9801 56.509 36.9801H57.6402C57.8632 36.9554 58.0696 36.8814 58.2513 36.7744C58.433 36.6674 58.6477 36.5769 58.9037 36.5193C58.9037 36.4946 58.945 36.4699 59.0275 36.4535C59.1101 36.437 59.1679 36.4206 59.1927 36.3877C59.779 36.0832 60.3157 35.7623 60.7864 35.4249C61.2571 35.0875 61.7278 34.6843 62.1737 34.207C62.2315 34.1494 62.3141 34.0506 62.4297 33.9107C62.5453 33.7709 62.5948 33.6886 62.5948 33.6557C62.7104 33.4911 62.8013 33.2442 62.8673 32.9233C62.9334 32.6024 62.9912 32.265 63.0325 31.9194C63.0738 31.5737 63.0986 31.2281 63.1151 30.8907C63.1316 30.5534 63.1398 30.29 63.1398 30.0925C63.1398 30.0349 63.1398 29.9609 63.1151 29.8621C63.0903 29.7634 63.0903 29.6975 63.0903 29.6729C63.0903 29.4754 63.0903 29.0145 63.0655 28.2904C63.0407 27.5663 63.0407 26.801 63.0242 25.9863C63.0077 25.1716 62.9995 24.4064 62.9829 23.6822C62.9664 22.9581 62.9499 22.4972 62.9169 22.2998C62.9169 22.2751 62.8921 22.2422 62.8508 22.2175C62.8095 22.1928 62.7765 22.1516 62.7435 22.094H62.7022C61.3314 21.9295 60.0845 22.1599 58.9615 22.7853C57.8384 23.4107 56.9053 24.1842 56.1456 25.1058C56.1208 25.1305 56.03 25.2622 55.8896 25.4843C55.7493 25.7065 55.5924 25.9534 55.4272 26.2167C55.262 26.48 55.1052 26.7187 54.9648 26.9244C54.8244 27.1301 54.7418 27.2536 54.7088 27.2782C54.6758 27.3029 54.6345 27.3934 54.5602 27.5498C54.4858 27.7061 54.4115 27.879 54.3289 28.0764C54.2464 28.2739 54.1308 28.5208 53.9904 28.8335C53.9656 28.8911 53.8995 29.0475 53.8004 29.319C53.7014 29.5906 53.594 29.8868 53.4867 30.216L53.1729 31.1541C53.0738 31.4503 53.0077 31.6231 52.9829 31.6807C52.7848 32.158 52.7187 32.6188 52.7765 33.0796C52.8343 33.5404 52.8591 34.0671 52.8591 34.6513C52.8591 34.7666 52.8838 34.9229 52.9417 35.1369C52.9995 35.3508 53.0655 35.5565 53.1481 35.7623C53.2307 35.968 53.338 36.1572 53.4619 36.33C53.5857 36.5029 53.7344 36.5934 53.8995 36.6263C53.9821 36.6263 54.0399 36.6427 54.0647 36.6674H54.362C54.362 36.6674 54.4445 36.6839 54.5271 36.6263C54.6097 36.5687 54.6675 36.5605 54.6923 36.5851H54.8574L54.94 36.6674C55.0226 36.7497 55.0556 36.7909 55.0226 36.7909C55.0474 36.7662 55.0886 36.7333 55.1464 36.7086C55.2042 36.6839 55.262 36.6674 55.3116 36.6674L55.3859 36.6921Z" fill="#36D0B8" fill-opacity="0.48"/>
<path d="M83.5664 44.314L83.4834 44.3963C83.4834 44.3963 83.4254 44.4374 83.4014 44.4374L83.3184 44.4786C83.2024 44.4786 83.1364 44.4128 83.1124 44.2729C83.0874 44.133 83.0134 44.0342 82.9054 43.9766C82.7404 44.1412 82.5584 44.2153 82.3604 44.1823C82.1624 44.1494 81.9724 44.0754 81.7904 43.9519C81.6094 43.8285 81.4354 43.6804 81.2624 43.5158L80.7999 43.055V42.3473C80.7999 42.1827 80.7999 42.0264 80.7751 41.8865C80.7503 41.7466 80.7503 41.6643 80.7503 41.6314C80.7503 41.5738 80.7255 41.4668 80.6677 41.294C80.6099 41.1212 80.5852 41.0142 80.5852 40.9566C80.5274 40.3724 80.5108 39.6811 80.5191 38.8829C80.5274 38.0847 80.5439 37.2618 80.5604 36.4143C80.5769 35.5667 80.5852 34.7356 80.6017 33.9209C80.6182 33.1062 80.6017 32.415 80.5356 31.8308C80.5356 31.7732 80.5109 31.6415 80.453 31.4358C80.3952 31.23 80.3705 31.0902 80.3705 31.0408V27.815C80.3705 27.56 80.3705 27.2555 80.3952 26.8934C80.42 26.5313 80.42 26.1446 80.4365 25.7414C80.453 25.3381 80.4613 24.9432 80.4778 24.5729C80.4943 24.2026 80.4778 23.8816 80.453 23.6348C80.453 23.5772 80.453 23.4208 80.4778 23.1493C80.5026 22.8777 80.5026 22.5979 80.5026 22.2935V20.9521C80.5026 20.9521 80.4778 20.8452 80.4365 20.7217C80.3952 20.5983 80.3705 20.516 80.3705 20.4913V19.9647C80.3705 19.6437 80.387 19.2981 80.4118 18.9196C80.4365 18.5411 80.4613 18.1955 80.4778 17.8745C80.4943 17.5536 80.5026 17.3643 80.5026 17.3067C80.5026 17.2491 80.4778 17.1175 80.42 16.9117C80.3622 16.706 80.3374 16.5661 80.3374 16.5168C80.2796 15.9325 80.2714 15.4059 80.3127 14.945C80.354 14.4842 80.3127 13.9905 80.164 13.4556L80.3705 7.72008C80.453 7.72008 80.5356 7.6707 80.6017 7.57196C80.6677 7.47321 80.709 7.39915 80.709 7.34155L80.3705 7.00416V6.96302C80.3705 6.74084 80.3952 6.52689 80.453 6.33762C80.5109 6.14836 80.5356 5.9344 80.5356 5.71222C80.5356 5.43244 80.5109 5.25141 80.453 5.16912C80.3952 5.08683 80.3705 4.90579 80.3705 4.62601C80.3705 4.42851 80.387 4.23925 80.4118 4.04176C80.4365 3.84426 80.5769 3.72083 80.8329 3.66323L80.998 3.95947C81.1384 3.90186 81.2214 3.79489 81.2544 3.64677C81.2874 3.49865 81.3694 3.39167 81.5104 3.33407H81.8074L81.8894 3.25178L81.9724 3.16949H82.3114C82.3114 3.16949 82.3684 3.21886 82.3934 3.31761C82.4184 3.41636 82.4514 3.48219 82.4764 3.50688C82.5014 3.50688 82.5584 3.50688 82.6414 3.48219C82.7234 3.4575 82.7654 3.48219 82.7654 3.50688C82.7904 3.53156 82.8314 3.61385 82.8724 3.73729C82.9134 3.86072 82.9384 3.94301 82.9384 3.9677L83.0214 4.00884C83.0214 4.00884 83.0794 3.99238 83.1034 3.9677C83.1284 3.9677 83.1454 3.95124 83.1454 3.92655L83.1864 3.84426L83.2684 3.67968C83.3264 3.59739 83.4094 3.52333 83.5244 3.47396C83.6404 3.42459 83.7234 3.36698 83.7804 3.32584C83.8384 3.2847 83.8474 3.25178 83.8054 3.21886C83.7644 3.18595 83.6404 3.17772 83.4504 3.17772C83.4254 3.12012 83.3844 3.01314 83.3434 2.86502C83.3024 2.7169 83.2774 2.60993 83.2774 2.55232V2.38775C83.3024 2.33014 83.3594 2.26431 83.4424 2.18202C83.5244 2.09973 83.5824 2.05859 83.6074 2.05859C83.6324 2.05859 83.7064 2.09973 83.8144 2.18202C83.9214 2.26431 84.0124 2.33837 84.0694 2.38775C84.1274 2.38775 84.1524 2.44535 84.1524 2.55232H83.9874C83.9874 2.55232 83.9464 2.60993 83.9464 2.63461C83.9214 2.6593 83.9044 2.69221 83.9044 2.7169C83.9294 2.7169 84.0204 2.74159 84.1604 2.78273C84.3014 2.82388 84.3834 2.84856 84.4164 2.84856C84.4744 3.07074 84.5324 3.23532 84.6064 3.35053C84.6814 3.46573 84.8214 3.57271 85.0444 3.68791C85.0444 3.66323 85.0604 3.62208 85.0854 3.56448L85.1514 3.44105L85.2174 3.31761L85.3824 2.89794C85.4404 3.01314 85.5484 3.22709 85.6964 3.54802C85.8454 3.86895 85.9524 4.0829 86.0104 4.1981C86.0354 4.31331 86.0764 4.49435 86.1344 4.7659C86.1924 5.03745 86.2504 5.30078 86.2994 5.58056C86.3494 5.86034 86.4064 6.10721 86.4484 6.33762C86.4894 6.56803 86.5144 6.68323 86.5144 6.71615V8.64171C86.5144 8.69932 86.4894 8.89681 86.4484 9.25065C86.4064 9.6045 86.3654 9.99948 86.3244 10.4438C86.2834 10.8882 86.2584 11.3325 86.2414 11.7605C86.2254 12.1884 86.2414 12.534 86.2664 12.7891C86.2664 12.8467 86.2914 13.003 86.3494 13.2746C86.4064 13.5461 86.4314 13.7025 86.4314 13.7601V14.0975C86.4564 14.3196 86.4724 14.6899 86.4724 15.2084V16.9447C86.4724 17.5865 86.4724 18.2531 86.4484 18.9361C86.4314 19.6191 86.4234 20.2609 86.4234 20.8616V23.1822C86.4484 23.2398 86.4894 23.3714 86.5304 23.5772C86.5724 23.7829 86.5964 23.9228 86.5964 23.9722C86.6214 24.1943 86.6464 24.5482 86.6624 25.0419C86.6794 25.5356 86.6954 26.0294 86.7284 26.5313C86.7614 27.0333 86.7784 27.4859 86.7954 27.8891C86.8114 28.2923 86.8194 28.5392 86.8194 28.6215V29.3539C86.8194 29.79 86.8194 30.292 86.8444 30.8844C86.8694 31.4769 86.8694 32.0529 86.8694 32.6454V35.1799C86.8694 35.6983 86.8694 36.2414 86.8444 36.8092C86.8194 37.377 86.8194 37.9284 86.8194 38.4386V39.5083C86.8194 39.5906 86.8194 39.7141 86.7954 39.8869C86.7704 40.0597 86.7614 40.2325 86.7284 40.4135C86.6954 40.5945 86.6794 40.7674 86.6624 40.9402C86.6464 41.113 86.6384 41.2364 86.6384 41.3187C86.6384 41.3763 86.6134 41.5326 86.5554 41.8042C86.4974 42.0757 86.4724 42.2321 86.4724 42.2897C86.4724 42.3144 86.4484 42.4461 86.4064 42.6682C86.3654 42.8904 86.3404 43.0303 86.3404 43.0879C86.3404 43.1455 86.2584 43.2196 86.0844 43.3183C85.9114 43.4171 85.7384 43.524 85.5394 43.6557C85.3414 43.7874 85.1514 43.8861 84.9534 43.9684C84.7554 44.0507 84.6144 44.0918 84.5324 44.0918C84.3094 44.0918 84.1444 44.1412 84.0454 44.2399C83.9464 44.3387 83.7894 44.3881 83.5584 44.3881L83.5664 44.314Z" fill="#36D0B8" fill-opacity="0.48"/>
<path d="M90.7122 40.2487C90.6542 40.1335 90.5962 39.9854 90.5222 39.7879C90.4482 39.5904 90.3822 39.3929 90.3162 39.179C90.2492 38.965 90.1832 38.7675 90.1262 38.57C90.0682 38.3725 90.0272 38.2327 90.0022 38.1504C89.9442 38.0681 89.8862 37.9282 89.8372 37.7307C89.7872 37.5332 89.7382 37.3933 89.7132 37.311C89.7132 37.2863 89.6962 37.204 89.6712 37.0806C89.6472 36.9572 89.6052 36.8173 89.5642 36.6609C89.5232 36.5046 89.4822 36.3647 89.4402 36.2413C89.3992 36.1178 89.3742 36.0273 89.3742 35.9697C89.3492 35.945 89.2922 35.9039 89.2092 35.8627C89.1262 35.8216 89.0852 35.7887 89.0852 35.7557C89.0602 35.7557 89.0442 35.6981 89.0442 35.5912C89.0442 35.4842 89.0272 35.4101 89.0032 35.3854C89.0272 35.3608 89.0522 35.2949 89.0692 35.1962C89.0852 35.0974 89.0692 35.0316 89.0442 35.0069C89.0442 34.9822 89.0192 34.9164 88.9612 34.8177C88.9032 34.7189 88.8792 34.6531 88.8792 34.6284C88.8792 34.5708 88.8792 34.4473 88.8542 34.2499C88.8292 34.0524 88.8292 33.8549 88.8132 33.6409C88.7962 33.427 88.7882 33.2377 88.7712 33.0567C88.7552 32.8756 88.7472 32.7687 88.7472 32.744C88.7472 32.7193 88.7142 32.637 88.6392 32.5136C88.5652 32.3901 88.5322 32.3078 88.5322 32.2831C88.5072 32.2585 88.4742 32.1268 88.4492 31.9046C88.4252 31.6824 88.3922 31.5014 88.3672 31.3615V30.6538C88.3922 30.5962 88.4332 30.5386 88.4912 30.4892L88.6142 30.3658C88.4742 30.3411 88.4002 30.1601 88.3832 29.8227C88.3672 29.4853 88.3832 29.1232 88.4492 28.7365C88.5152 28.3497 88.5652 27.963 88.6392 27.5844C88.7142 27.2059 88.7472 26.9673 88.7472 26.8521C88.7472 26.7945 88.7632 26.671 88.7882 26.4735C88.8132 26.276 88.8462 26.0785 88.8702 25.8646C88.8952 25.6506 88.9282 25.4614 88.9532 25.2803C88.9782 25.0993 88.9942 24.9841 88.9942 24.9265C88.9942 24.9018 88.9942 24.8524 89.0192 24.7784C89.0442 24.7043 89.0442 24.6467 89.0442 24.5891C89.4322 22.7458 90.1502 21.1741 91.2072 19.8822C92.2562 18.582 93.4952 17.4876 94.9232 16.5906C95.5432 16.2532 96.2032 16.0146 96.9222 15.8829C97.6402 15.7513 98.3502 15.6772 99.0602 15.6937C99.7712 15.7101 100.456 15.8089 101.1 15.9899C101.744 16.1709 102.322 16.426 102.826 16.7634C102.851 16.821 102.925 16.9033 103.032 17.0185L103.239 17.2242C103.239 17.2242 103.387 17.2736 103.594 17.3724C103.8 17.4711 103.924 17.5369 103.949 17.5616C104.618 18.0389 105.229 18.5902 105.774 19.2403C106.319 19.8822 106.814 20.5899 107.268 21.3716C107.69 22.0957 108.053 22.787 108.358 23.4453C108.664 24.1036 108.92 24.7619 109.118 25.4367C109.316 26.1115 109.457 26.8109 109.539 27.5515C109.622 28.2921 109.655 29.0903 109.622 29.9626C109.622 30.2177 109.605 30.5386 109.581 30.9501C109.556 31.3615 109.531 31.7647 109.515 32.1844C109.498 32.6041 109.473 33.0073 109.432 33.4023C109.391 33.7973 109.358 34.11 109.325 34.3651C109.3 34.4227 109.259 34.5132 109.217 34.6366C109.176 34.76 109.151 34.8423 109.151 34.867C109.151 34.9493 109.11 35.1221 109.027 35.369C108.945 35.6159 108.862 35.8956 108.771 36.1837C108.681 36.4717 108.598 36.7514 108.499 36.9983C108.4 37.2452 108.334 37.4344 108.309 37.5414C108.284 37.5661 108.243 37.6319 108.202 37.7307C108.16 37.8294 108.127 37.8788 108.094 37.8788C108.069 37.9035 108.028 37.92 107.97 37.92C107.913 37.92 107.904 37.9035 107.929 37.8788C107.566 38.6359 107.211 39.2695 106.856 39.7797C106.501 40.2899 106.121 40.7589 105.7 41.1621C105.278 41.5654 104.799 41.9357 104.271 42.273C103.742 42.6104 103.123 42.9725 102.421 43.3593C102.396 43.3593 102.33 43.3922 102.231 43.4662C102.132 43.5403 102.058 43.5979 102 43.6555C101.942 43.7131 101.785 43.7707 101.513 43.8201C101.24 43.8695 101.084 43.9188 101.026 43.9435C100.266 44.0587 99.5312 44.1657 98.8212 44.2809C98.1112 44.3961 97.3842 44.3632 96.6572 44.1986C95.9562 44.0587 95.2702 43.8448 94.6012 43.5485C93.9322 43.2523 93.3132 42.9149 92.7522 42.5199C92.3632 42.2154 92.0172 41.8287 91.7192 41.3679C91.4222 40.907 91.0842 40.5368 90.6872 40.257L90.7122 40.2487ZM94.0312 27.1483C94.0072 27.2882 93.9572 27.4116 93.8832 27.5268C93.8092 27.642 93.7512 27.7572 93.6932 27.8807C93.6352 28.0041 93.6192 28.1358 93.6272 28.2592C93.6352 28.3826 93.7182 28.5308 93.8582 28.6953V32.7522C93.8582 32.8098 93.8992 33.0237 93.9822 33.4023C94.0652 33.7808 94.1392 34.0524 94.1882 34.2169C94.1642 34.2745 94.1722 34.3815 94.2302 34.5543C94.2872 34.7271 94.3292 34.8177 94.3542 34.8506C94.4362 35.155 94.5272 35.5171 94.6262 35.9203C94.7252 36.3235 94.9232 36.628 95.2372 36.8173C95.3772 36.9325 95.5102 37.0559 95.6332 37.1958C95.7572 37.3357 95.8482 37.418 95.9062 37.4509C95.9312 37.4756 95.9892 37.492 96.0712 37.492C96.1292 37.5167 96.1872 37.5908 96.2612 37.6978C96.3352 37.8048 96.3932 37.92 96.4512 38.0352C96.5092 38.1504 96.5582 38.2409 96.6002 38.3067C96.6412 38.3725 96.6902 38.3725 96.7482 38.282C97.2522 38.4795 97.7892 38.5618 98.3672 38.5371C98.9452 38.5124 99.4982 38.389 100.043 38.1833C100.588 37.9776 101.092 37.6978 101.554 37.3439C102.017 36.9901 102.405 36.5951 102.71 36.1507C103.049 35.6241 103.33 35.0727 103.569 34.5214C103.809 33.9701 104.064 33.4187 104.345 32.8921V32.7687L104.387 32.6864C104.387 32.6288 104.387 32.53 104.411 32.3901C104.436 32.2502 104.444 32.1103 104.477 31.9704C104.51 31.8306 104.519 31.6989 104.519 31.5755V31.345C104.519 31.345 104.477 31.2628 104.395 31.1805L104.601 31.0159C104.601 31.0159 104.618 30.9747 104.643 30.8102C104.667 30.6456 104.7 30.5139 104.725 30.4316C104.783 30.1272 104.832 29.8968 104.874 29.7404C104.915 29.5841 104.899 29.3866 104.808 29.1315C104.783 29.0492 104.75 28.9093 104.725 28.7118C104.7 28.5143 104.667 28.3168 104.643 28.1029C104.618 27.8889 104.576 27.7161 104.535 27.5597C104.494 27.4034 104.461 27.3047 104.428 27.247L104.172 26.6628C104.172 26.5476 104.131 26.3912 104.048 26.1773C103.965 25.9633 103.866 25.7576 103.751 25.5519C103.635 25.3462 103.519 25.1651 103.396 25.0088C103.272 24.8524 103.148 24.7619 103.041 24.7372L102.958 25.0335C102.958 25.0335 102.9 25.0088 102.875 25.0335C102.851 25.0582 102.818 25.0582 102.793 25.0335C102.735 24.9759 102.677 24.91 102.628 24.8277C102.578 24.7455 102.545 24.6714 102.545 24.622C102.545 24.5973 102.562 24.5809 102.586 24.5809C102.611 24.5809 102.644 24.5644 102.669 24.5397C102.694 24.515 102.727 24.4986 102.752 24.4986L102.793 24.4163V24.334C102.768 24.2517 102.727 24.1694 102.669 24.0789C102.553 23.9143 102.463 23.8403 102.372 23.8732C102.314 23.7333 102.231 23.5276 102.116 23.2643C102 23.0009 101.909 22.7952 101.818 22.6553C101.794 22.6553 101.777 22.6389 101.777 22.6142C101.777 22.5895 101.777 22.573 101.752 22.573C101.728 22.573 101.728 22.5566 101.728 22.5319C101.703 22.5072 101.686 22.4743 101.686 22.4496C101.662 22.4249 101.546 22.3591 101.348 22.2603L100.968 22.0711C100.968 22.0711 100.894 22.0381 100.819 21.9641C100.745 21.89 100.704 21.8571 100.671 21.8571C100.588 21.8324 100.489 21.7995 100.373 21.7748C100.291 21.7501 100.208 21.7337 100.142 21.7337C100.076 21.7337 100.01 21.7172 99.9522 21.6925C99.1932 21.528 98.4912 21.5773 97.8302 21.8407C97.1692 22.104 96.5832 22.5072 96.0632 23.0585C95.5432 23.6099 95.1132 24.2435 94.7582 24.9841C94.4032 25.7247 94.1472 26.4571 93.9822 27.1812L94.0312 27.1483Z" fill="#36D0B8" fill-opacity="0.48"/>
<path d="M109.529 19.7341C109.529 19.3144 109.554 18.977 109.612 18.7055C109.67 18.4421 109.793 18.1212 109.992 17.7591L110.157 18.0554C110.157 18.0554 110.239 18.0307 110.322 17.9895C110.404 17.9484 110.462 17.9155 110.487 17.8826H110.652L110.817 17.9649C110.817 17.9649 110.883 18.0225 110.941 18.0472C110.966 18.1048 110.982 18.2117 110.982 18.3845C110.982 18.5573 110.966 18.6643 110.941 18.7219C110.999 18.6972 111.057 18.6396 111.131 18.5491C111.197 18.4668 111.247 18.4092 111.28 18.3845V18.0472C111.28 17.9895 111.255 17.8332 111.197 17.5616C111.139 17.2901 111.115 17.1337 111.115 17.0761C111.115 17.0185 111.139 16.9362 111.181 16.821C111.222 16.7058 111.255 16.64 111.288 16.6153C111.321 16.5906 111.362 16.5742 111.437 16.5742H111.816C111.883 16.5742 111.924 16.5906 111.924 16.6153C111.982 16.64 112.039 16.7141 112.114 16.821C112.188 16.928 112.205 17.0185 112.18 17.0761V16.4507C112.32 16.7552 112.568 16.9609 112.94 17.0597C113.311 17.1584 113.608 17.2243 113.864 17.2489C113.889 17.2736 113.93 17.3312 113.972 17.4135C114.013 17.4958 114.038 17.5534 114.038 17.5781C114.096 17.6604 114.228 17.8497 114.434 18.1459C114.641 18.4421 114.781 18.6314 114.831 18.7137C114.888 18.6561 114.971 18.6314 115.087 18.6314C115.202 18.6314 115.285 18.6561 115.343 18.7137C115.367 18.7137 115.4 18.7795 115.425 18.9194C115.45 19.0593 115.483 19.1416 115.508 19.1745C115.846 19.9316 116.243 20.8368 116.705 21.8983C117.167 22.9598 117.638 24.046 118.109 25.1652C118.579 26.2843 119.05 27.3705 119.513 28.432C119.975 29.4936 120.371 30.3988 120.71 31.1558C120.735 31.2381 120.784 31.3615 120.859 31.5343C120.933 31.7071 120.974 31.7977 121.007 31.8306C121.04 31.8635 121.09 31.9046 121.172 31.9787C121.255 32.0528 121.313 32.0939 121.338 32.1268C121.362 32.1844 121.387 32.2914 121.404 32.4395C121.42 32.5876 121.437 32.744 121.47 32.9003C121.503 33.0567 121.536 33.1884 121.594 33.2953C121.651 33.4023 121.75 33.4599 121.891 33.4599C121.916 33.4599 121.949 33.4434 121.973 33.4188C122.056 33.2789 122.147 33.0978 122.246 32.8757C122.345 32.6535 122.436 32.4148 122.518 32.168C122.601 31.9211 122.684 31.6825 122.75 31.4603C122.816 31.2381 122.882 31.0406 122.94 30.876C122.997 30.7361 123.055 30.4646 123.129 30.0614C123.204 29.6581 123.245 29.3948 123.278 29.2878C123.361 29.3701 123.476 29.3701 123.617 29.2878C123.674 29.2056 123.732 29.0492 123.782 28.827L123.906 28.3251C123.93 28.2428 124.03 27.9548 124.203 27.4693C124.376 26.9838 124.55 26.4489 124.731 25.8811C124.913 25.3133 125.078 24.7949 125.235 24.334C125.392 23.8732 125.483 23.6181 125.508 23.5605C125.508 23.5029 125.549 23.3959 125.632 23.2231L125.797 22.8858C125.854 22.7705 125.904 22.6307 125.945 22.4661C125.987 22.3015 126.036 22.1451 126.094 22.0053C126.152 21.8407 126.218 21.6596 126.3 21.4622L126.135 21.2976C126.333 21.24 126.449 21.1001 126.49 20.8779C126.532 20.6557 126.556 20.4747 126.556 20.3348H126.854C126.854 20.1702 126.829 19.948 126.771 19.6847C126.713 19.4214 126.771 19.1992 126.936 19.0346C126.961 19.0346 126.994 19.0346 127.019 19.0099C127.044 18.9852 127.077 18.9852 127.101 18.9852V19.5284C127.242 19.2733 127.324 18.977 127.357 18.6232C127.382 18.2776 127.456 18.0307 127.564 17.8908C127.564 17.9155 127.58 17.9319 127.605 17.9319H127.688C127.688 17.9319 127.745 17.9731 127.77 17.9731C127.77 17.9155 127.77 17.8003 127.745 17.6192C127.721 17.4382 127.721 17.323 127.721 17.2654C127.745 17.1502 127.869 16.928 128.076 16.5989C128.282 16.2697 128.431 16.0558 128.513 15.9735H128.679C128.761 15.9488 128.835 15.8418 128.885 15.6608C128.935 15.4797 129.017 15.2905 129.116 15.093C129.215 14.8955 129.347 14.7227 129.513 14.5663C129.678 14.41 129.934 14.3359 130.272 14.3359V14.6733L130.355 14.7144H130.437C130.495 14.6898 130.603 14.6568 130.776 14.6322C130.949 14.6075 131.057 14.5746 131.115 14.5499C131.115 14.6898 131.139 14.772 131.197 14.805C131.255 14.8379 131.329 14.8626 131.428 14.8872C131.527 14.9119 131.618 14.9531 131.701 15.0107C131.783 15.0683 131.858 15.1753 131.907 15.3481C131.907 15.4057 131.907 15.5044 131.883 15.6443C131.858 15.7842 131.932 15.85 132.072 15.85C132.097 15.8253 132.139 15.7924 132.196 15.7677L132.362 15.6855C132.362 15.6855 132.428 15.6443 132.485 15.6443H132.609C132.609 15.7019 132.626 15.8583 132.651 16.1298C132.675 16.4014 132.692 16.5659 132.692 16.6565C132.717 16.7717 132.807 16.8293 132.948 16.8457C133.088 16.8622 133.187 16.8704 133.245 16.8704C133.245 17.1749 133.245 17.4876 133.22 17.8085C133.196 18.1294 133.146 18.4421 133.03 18.7548C133.006 18.7795 132.94 18.8783 132.84 19.0511C132.741 19.2239 132.692 19.3309 132.692 19.3885V19.8493C132.551 20.4665 132.345 21.0672 132.081 21.6514C131.817 22.2357 131.585 22.8199 131.387 23.4124C131.387 23.47 131.313 23.7251 131.156 24.1859C130.999 24.6467 130.842 25.1569 130.669 25.7165C130.495 26.2761 130.347 26.7945 130.206 27.2635C130.066 27.7326 130 27.9877 130 28.0206C129.917 28.2428 129.835 28.4814 129.769 28.7283C129.703 28.9751 129.603 29.2138 129.496 29.436C129.298 29.8556 129.133 30.3082 128.992 30.7937C128.852 31.2792 128.695 31.7318 128.53 32.1515C128.414 32.456 128.307 32.7358 128.191 32.9909C128.076 33.246 127.985 33.5093 127.894 33.7891C127.894 33.8137 127.869 33.9125 127.828 34.0853C127.787 34.2581 127.754 34.3651 127.721 34.4227C127.556 35.1797 127.333 35.9121 127.052 36.6198C126.771 37.3275 126.523 38.0516 126.292 38.7758C126.152 39.1955 126.036 39.6069 125.937 40.0101C125.838 40.4133 125.722 40.7919 125.582 41.1375C125.442 41.4831 125.268 41.8287 125.053 42.1661C124.839 42.5035 124.558 42.808 124.195 43.0877L123.691 43.4251C123.435 43.5897 123.286 43.6884 123.229 43.7214C123.204 43.746 123.146 43.7543 123.063 43.746C122.981 43.7378 122.923 43.7214 122.898 43.7214C122.7 43.779 122.551 43.8448 122.461 43.9271C122.37 44.0094 122.213 44.0505 122.023 44.0505H121.767L121.643 43.8859C121.387 43.8283 121.115 43.8036 120.801 43.8036C120.487 43.8036 120.223 43.7378 120 43.5979C119.975 43.5732 119.942 43.5321 119.917 43.4909C119.892 43.4498 119.859 43.4251 119.835 43.4251C118.769 41.8863 117.795 40.2817 116.911 38.6112C116.028 36.9407 115.186 35.2785 114.368 33.6327C114.087 33.0731 113.84 32.4642 113.608 31.8141C113.377 31.164 113.162 30.5386 112.94 29.9544C112.915 29.8968 112.857 29.7734 112.774 29.5759C112.692 29.3784 112.609 29.1809 112.518 28.9669C112.428 28.753 112.353 28.5637 112.262 28.3827C112.172 28.2016 112.122 28.0864 112.097 28.0288C111.982 27.6914 111.783 27.1319 111.486 26.3584C111.189 25.5848 110.9 24.7537 110.603 23.8897C110.305 23.0256 110.049 22.2028 109.826 21.421C109.603 20.6393 109.488 20.0962 109.488 19.7917L109.529 19.7341Z" fill="#36D0B8" fill-opacity="0.48"/>
<path d="M132.717 32.2501C132.717 32.2501 132.734 32.1925 132.758 32.1678L132.841 32.0855V32.0033C132.866 31.7811 132.824 31.6165 132.717 31.5013C132.61 31.3861 132.552 31.238 132.552 31.0405C132.552 30.9006 132.585 30.7936 132.659 30.7278C132.734 30.6619 132.775 30.555 132.808 30.4151C132.808 30.2999 132.775 30.2258 132.701 30.1847C132.626 30.1435 132.593 30.053 132.593 29.9131C132.593 29.8555 132.593 29.7897 132.618 29.7074C132.643 29.6251 132.692 29.5675 132.808 29.5428C132.667 29.4605 132.552 29.3453 132.469 29.2054V29.0409C132.469 29.0409 132.552 29.0162 132.634 28.975C132.717 28.9339 132.775 28.9092 132.8 28.9092L132.841 28.8269V28.7446C132.841 28.7446 132.758 28.6788 132.676 28.6376C132.593 28.5965 132.535 28.5718 132.511 28.5718C132.734 28.5142 132.899 28.399 132.998 28.218C133.097 28.0369 133.146 27.8312 133.146 27.609C133.171 27.3868 133.13 27.2387 133.023 27.1729C132.915 27.1071 132.857 26.9836 132.857 26.819C132.857 26.5393 132.94 26.3335 133.113 26.1936C133.287 26.0538 133.419 25.8892 133.535 25.6917C133.7 25.4695 133.791 25.1157 133.807 24.6219C133.824 24.1282 133.857 23.7497 133.914 23.4699C133.972 23.0831 134.047 22.7622 134.146 22.5318C134.245 22.3014 134.352 21.9804 134.459 21.5937C134.459 21.569 134.484 21.4867 134.525 21.3633C134.567 21.2398 134.608 21.1 134.649 20.9436C134.691 20.7873 134.732 20.6474 134.773 20.5239C134.814 20.4005 134.839 20.3182 134.839 20.2935L134.922 20.2112L135.004 20.1289C135.062 20.0713 135.153 19.9397 135.277 19.734C135.401 19.5282 135.483 19.3883 135.508 19.339C135.566 19.3637 135.649 19.3801 135.764 19.3801C135.88 19.3801 135.962 19.3637 136.02 19.339C136.045 19.3143 136.078 19.2073 136.103 19.0263C136.127 18.8452 136.16 18.7383 136.185 18.7136C136.185 18.6889 136.235 18.656 136.334 18.6313C136.433 18.6066 136.483 18.5737 136.483 18.549C136.507 18.4914 136.549 18.3844 136.606 18.2116C136.664 18.0388 136.689 17.9318 136.689 17.8742C136.772 17.7919 136.829 17.7508 136.854 17.7508C136.937 17.6932 137.127 17.652 137.424 17.6274C137.721 17.6027 137.911 17.5862 137.994 17.5862C138.051 17.3064 138.159 17.1089 138.332 17.002C138.506 16.895 138.671 16.8045 138.836 16.7469C139.001 16.6893 139.141 16.6234 139.257 16.5411C139.373 16.4589 139.397 16.319 139.34 16.1215C139.728 16.0063 140.091 15.8746 140.413 15.7265C140.735 15.5784 141.09 15.4961 141.487 15.4961C142.131 15.4961 142.783 15.5454 143.444 15.6442C144.104 15.7429 144.707 15.9569 145.269 16.2943C145.326 16.319 145.409 16.4095 145.525 16.5494C145.64 16.6893 145.706 16.7715 145.731 16.8045C145.756 16.8045 145.838 16.8292 145.962 16.8703C146.086 16.9114 146.169 16.9361 146.194 16.9361C146.218 16.9608 146.309 17.0266 146.45 17.1254C146.59 17.2241 146.672 17.2735 146.705 17.2735H147.003C147.003 17.2735 147.069 17.3558 147.11 17.4381C147.151 17.5204 147.176 17.578 147.176 17.6027C147.201 17.6027 147.234 17.6274 147.259 17.6685C147.284 17.7096 147.317 17.7426 147.341 17.7755C148.407 18.5819 149.29 19.3966 149.992 20.203C150.694 21.0094 151.363 22.0134 152.007 23.2148C152.065 23.33 152.139 23.4863 152.238 23.7003C152.337 23.9142 152.436 24.1117 152.535 24.3092L152.808 24.8523C152.89 25.0169 152.932 25.1157 152.932 25.1486V25.5271C152.932 25.6423 152.932 25.7493 152.907 25.8645C152.882 25.9797 152.882 26.062 152.882 26.1196V27.2058C152.882 27.4856 152.816 27.823 152.676 28.2097C152.618 28.4072 152.527 28.5718 152.403 28.7117C152.279 28.8516 152.156 29.0079 152.048 29.1725C151.908 29.3371 151.842 29.4523 151.842 29.5099C151.842 29.5675 151.726 29.6662 151.503 29.8061C151.445 29.8637 151.288 29.946 151.016 30.0612C150.743 30.1764 150.587 30.2423 150.529 30.267C150.504 30.2916 150.421 30.3575 150.298 30.4562C150.174 30.555 150.091 30.6043 150.066 30.6043C149.587 30.8018 149.018 30.9253 148.34 30.9829C147.663 31.0405 147.094 31.0816 146.615 31.1063C146.359 31.1063 145.855 31.1063 145.104 31.0816C144.352 31.0569 143.551 31.0487 142.709 31.0158C141.867 30.9829 141.074 30.9664 140.339 30.95C139.604 30.9335 139.084 30.9253 138.803 30.9253C138.778 30.9253 138.729 30.9417 138.654 30.9664C138.58 30.9911 138.522 31.024 138.464 31.0487V31.131C138.464 31.4931 138.522 31.9457 138.63 32.4888C138.737 33.0319 138.894 33.5832 139.092 34.1428C139.29 34.7023 139.505 35.2208 139.744 35.7145C139.984 36.2082 140.215 36.5868 140.438 36.8665C140.496 36.9488 140.603 37.0723 140.777 37.2451C140.95 37.4179 141.123 37.5825 141.305 37.747C141.487 37.9116 141.668 38.068 141.85 38.2079C142.032 38.3477 142.18 38.43 142.288 38.4629C142.345 38.4876 142.502 38.5452 142.775 38.6275C143.047 38.7098 143.188 38.7674 143.213 38.7921C143.237 38.7921 143.295 38.8168 143.378 38.8579C143.46 38.8991 143.518 38.9238 143.543 38.9238H143.667C143.724 38.9238 143.881 38.8991 144.154 38.8579C144.426 38.8168 144.583 38.7921 144.641 38.7921C144.666 38.7921 144.724 38.8168 144.806 38.8579C144.889 38.8991 144.947 38.9238 144.971 38.9238C144.996 38.9238 145.054 38.8991 145.137 38.8579C145.219 38.8168 145.277 38.7921 145.302 38.7921C145.359 38.7674 145.442 38.7592 145.558 38.7674C145.673 38.7756 145.739 38.7921 145.764 38.7921C145.789 38.7921 145.855 38.7674 145.954 38.7098C146.053 38.6522 146.119 38.6275 146.144 38.6275C146.202 38.6028 146.359 38.5452 146.631 38.4629C146.904 38.3807 147.061 38.3231 147.118 38.2984C147.284 38.2408 147.531 38.1338 147.853 37.961C148.175 37.7882 148.349 37.6977 148.382 37.6647L152.874 33.3117C153.014 33.3693 153.064 33.4351 153.023 33.5174C152.981 33.5997 152.99 33.6984 153.047 33.8136C153.047 33.8383 153.089 33.8877 153.171 33.9617C153.254 34.0358 153.295 34.0769 153.295 34.1099C153.295 34.1428 153.295 34.2004 153.32 34.2991C153.345 34.3979 153.345 34.4719 153.345 34.5295C153.345 34.7517 153.32 34.9327 153.279 35.0726C153.237 35.2125 153.146 35.3771 153.006 35.5746H153.171C153.336 35.5746 153.468 35.5088 153.568 35.3689C153.667 35.229 153.799 35.1302 153.964 35.0726V35.3277C153.939 35.5252 153.906 35.698 153.881 35.8544C153.857 36.0107 153.815 36.1835 153.758 36.381L153.592 36.5456C153.592 36.5456 153.592 36.6197 153.617 36.6937C153.642 36.7678 153.642 36.8254 153.642 36.883H154.104C154.047 36.9406 153.931 37.0887 153.749 37.3438C153.568 37.5989 153.452 37.7635 153.394 37.8458V37.9692C153.394 38.0844 153.419 38.1585 153.477 38.1996C153.535 38.2408 153.559 38.3066 153.559 38.3889V38.4712L153.394 38.6358C153.312 38.718 153.237 38.7756 153.188 38.8003C153.163 38.825 153.122 38.9073 153.064 39.0307C153.006 39.1542 152.948 39.2858 152.874 39.4257C152.8 39.5656 152.742 39.6973 152.684 39.8207C152.626 39.9442 152.585 40.0264 152.56 40.0511C152.535 40.1087 152.469 40.1992 152.37 40.3227C152.271 40.4461 152.205 40.5284 152.18 40.5531C152.123 40.5778 152.056 40.6107 151.974 40.6354L151.718 40.7177C151.718 40.7177 151.685 40.7506 151.693 40.8246C151.701 40.8987 151.693 40.9645 151.668 41.0304C151.644 41.0962 151.602 41.1538 151.544 41.1949C151.487 41.2361 151.379 41.2279 151.206 41.1703C151.041 41.3678 150.801 41.6228 150.496 41.9438C150.19 42.2647 149.876 42.4951 149.571 42.635C149.513 42.635 149.373 42.6761 149.15 42.7584C148.927 42.8407 148.803 42.8983 148.77 42.923C148.737 42.9477 148.712 43.0053 148.687 43.0876C148.663 43.1699 148.63 43.2275 148.605 43.2522C148.522 43.3921 148.349 43.5073 148.101 43.5896C147.341 43.894 146.565 44.0504 145.772 44.0504H141.635C141.577 44.0504 141.495 44.0257 141.379 43.9845C141.264 43.9434 141.198 43.9105 141.173 43.8776C141.115 43.8529 140.999 43.8035 140.818 43.7294C140.636 43.6554 140.438 43.5731 140.232 43.4744C140.025 43.3756 139.827 43.2933 139.645 43.2193C139.464 43.1452 139.348 43.1041 139.29 43.0711C139.232 43.0382 139.075 42.9888 138.803 42.9066C138.53 42.8243 138.374 42.7667 138.316 42.742C138.06 42.6268 137.812 42.4869 137.556 42.3058C137.3 42.1248 137.077 41.952 136.887 41.7792C136.862 41.7545 136.763 41.6722 136.59 41.5488C136.416 41.4254 136.309 41.3431 136.251 41.3184C136.169 41.2361 136.086 41.1044 135.995 40.9234C135.904 40.7424 135.83 40.5531 135.764 40.3556C135.698 40.1581 135.64 39.9771 135.599 39.8125C135.558 39.6479 135.525 39.5327 135.492 39.4751C135.467 39.4504 135.409 39.3764 135.326 39.2694C135.244 39.1624 135.161 39.0307 135.07 38.8909C134.98 38.751 134.905 38.6193 134.839 38.4959C134.773 38.3724 134.724 38.2819 134.691 38.2243C134.633 38.142 134.55 37.9692 134.435 37.7223C134.319 37.4755 134.203 37.1957 134.08 36.9077C133.956 36.6197 133.832 36.3317 133.724 36.0683C133.617 35.805 133.526 35.6157 133.468 35.5005C133.411 35.4183 133.353 35.2454 133.303 34.9986C133.254 34.7517 133.204 34.5954 133.179 34.5378C133.179 34.4802 133.163 34.3732 133.138 34.2004C133.113 34.0276 133.072 33.8465 133.031 33.6326C132.99 33.4186 132.957 33.2376 132.923 33.0648C132.89 32.892 132.882 32.785 132.882 32.7274C132.882 32.7027 132.857 32.6204 132.816 32.497C132.775 32.3736 132.75 32.2913 132.75 32.2666L132.717 32.2501ZM139.274 25.3872C140 25.4448 140.768 25.5106 141.561 25.5929C142.354 25.6752 143.08 25.7164 143.724 25.7164C144.253 25.7164 144.765 25.6835 145.26 25.6094C145.756 25.5353 146.251 25.4777 146.755 25.4201H146.92C146.92 25.4201 147.036 25.3378 147.176 25.2556C147.317 25.1733 147.399 25.1157 147.432 25.091H147.515C147.515 25.091 147.573 25.0745 147.597 25.0498C147.597 24.7454 147.548 24.4327 147.449 24.1282C147.35 23.8237 147.193 23.5522 146.961 23.33H146.796C146.293 22.5482 145.723 21.9228 145.095 21.4456C144.468 20.9683 143.658 20.7379 142.676 20.7379C142.511 20.7379 142.296 20.7873 142.048 20.886C141.8 20.9848 141.561 21.1 141.338 21.2398C141.115 21.3797 140.9 21.5361 140.71 21.7007C140.521 21.8652 140.388 22.0216 140.331 22.1615C140.273 22.2438 140.174 22.4166 140.033 22.6634C139.893 22.9103 139.81 23.0667 139.777 23.1243C139.744 23.1819 139.711 23.2888 139.653 23.4617C139.596 23.6345 139.538 23.8073 139.488 23.9883C139.439 24.1693 139.381 24.3339 139.34 24.4903C139.298 24.6466 139.274 24.7371 139.274 24.7618C139.249 24.7865 139.232 24.8276 139.232 24.8853V25.091C139.232 25.091 139.232 25.165 139.257 25.2391C139.282 25.3132 139.282 25.3543 139.282 25.3872H139.274Z" fill="#36D0B8" fill-opacity="0.48"/>
<path d="M155.615 42.0904C155.731 41.8929 155.698 41.753 155.533 41.6707C155.368 41.5884 155.277 41.3909 155.277 41.0864V40.6668C155.302 40.6092 155.368 40.4693 155.467 40.2471C155.566 40.0249 155.615 39.885 155.615 39.8274V39.3666L155.698 39.2843L155.781 39.202C155.781 39.202 155.838 39.095 155.863 38.9716C155.888 38.8482 155.921 38.7659 155.946 38.7412C155.946 38.7165 155.946 38.6589 155.921 38.5766C155.896 38.4943 155.921 38.4367 155.946 38.412C156.392 37.548 157.077 37.1119 158.002 37.1119H158.506C158.588 37.1365 158.803 37.1859 159.133 37.26C159.464 37.334 159.695 37.3916 159.802 37.4492C160.19 37.5891 160.43 37.7373 160.512 37.8854C160.595 38.0335 160.776 38.2721 161.057 38.5766C161.115 38.6342 161.255 38.7659 161.478 38.9716C161.701 39.1773 161.825 39.3172 161.858 39.3666C162.056 39.6711 162.189 40.0414 162.255 40.4775C162.321 40.9136 162.362 41.2922 162.362 41.6295C162.362 42.0163 162.222 42.3866 161.941 42.7157C161.66 43.0449 161.363 43.3329 161.057 43.5551C160.776 43.7526 160.438 43.876 160.05 43.9336C159.662 43.9912 159.29 44.0159 158.96 44.0159C158.316 44.0159 157.688 43.8102 157.069 43.407C156.449 43.0038 155.962 42.5594 155.599 42.0904H155.615ZM155.574 26.4307C155.376 26.2332 155.318 25.9535 155.409 25.5914C155.5 25.2293 155.475 24.9084 155.368 24.6286C155.393 22.0859 155.467 19.6337 155.574 17.2555C155.69 14.8856 155.797 12.4251 155.913 9.89065C155.913 9.86596 155.913 9.77544 155.938 9.61909C155.962 9.46274 155.971 9.29817 156.004 9.11713C156.037 8.93609 156.053 8.75506 156.07 8.57402C156.086 8.39299 156.094 8.24487 156.094 8.13789C156.094 8.0556 156.094 7.93217 156.119 7.75936C156.144 7.58655 156.144 7.41375 156.16 7.23271C156.177 7.05167 156.185 6.87887 156.202 6.70606C156.218 6.53325 156.227 6.40982 156.227 6.32753C156.227 6.24524 156.293 6.16295 156.433 6.07243C156.598 5.81734 156.722 5.55401 156.788 5.27423C156.854 4.99445 156.994 4.71466 157.184 4.43488C157.209 4.43488 157.242 4.41019 157.267 4.36905C157.292 4.3279 157.325 4.30322 157.35 4.30322C157.374 4.27853 157.383 4.22916 157.374 4.1551C157.366 4.08104 157.374 4.03989 157.44 4.00698C157.639 3.8424 157.738 3.70251 157.754 3.5873C157.771 3.4721 157.779 3.36512 157.779 3.24992C157.779 3.13471 157.812 3.03596 157.886 2.93722C157.961 2.83847 158.159 2.7315 158.497 2.62452C158.522 2.59983 158.588 2.55869 158.687 2.51754C158.786 2.4764 158.852 2.45171 158.877 2.45171C158.902 2.45171 158.993 2.45171 159.15 2.42703C159.307 2.40234 159.406 2.40234 159.464 2.40234C159.942 2.42703 160.314 2.59983 160.578 2.9043C160.843 3.20877 161.148 3.48856 161.478 3.74365C161.842 4.02343 162.172 4.27853 162.469 4.51717C162.767 4.75581 162.981 5.09319 163.122 5.54578V6.76366C163.122 7.01876 163.122 7.2574 163.097 7.49603C163.072 7.73467 163.072 7.89102 163.072 7.98154C163.014 9.15005 162.957 10.3021 162.882 11.4377C162.808 12.5733 162.75 13.7171 162.692 14.8938C162.692 14.9185 162.692 14.9926 162.717 15.0995C162.742 15.2065 162.742 15.3299 162.742 15.4534C162.742 15.5768 162.742 15.7002 162.767 15.8072C162.791 15.9142 162.791 15.9883 162.791 16.0129C162.791 16.0705 162.791 16.194 162.767 16.3915C162.742 16.589 162.742 16.8029 162.725 17.0416C162.709 17.2802 162.692 17.4941 162.659 17.6916C162.626 17.8891 162.618 18.0126 162.618 18.0702V18.8848C162.618 19.0659 162.618 19.2387 162.643 19.4115C162.667 19.5843 162.667 19.6748 162.667 19.7077C162.667 19.9052 162.643 20.3413 162.601 21.0243C162.56 21.7073 162.511 22.4315 162.453 23.205C162.395 23.9785 162.337 24.6944 162.288 25.3857C162.238 26.0769 162.205 26.513 162.205 26.7023C162.205 26.7599 162.205 26.9162 162.23 27.1878C162.255 27.4594 162.255 27.7556 162.271 28.0847C162.288 28.4139 162.296 28.7513 162.296 29.0722V29.8046C162.296 29.8622 162.321 30.0185 162.362 30.2901C162.403 30.5617 162.428 30.718 162.428 30.7756C162.428 30.8003 162.428 30.8414 162.403 30.899C162.378 30.9566 162.378 30.9978 162.378 31.0225C162.321 31.5244 162.098 31.9853 161.71 32.4049C161.321 32.8246 160.95 33.1702 160.62 33.45C160.479 33.5652 160.306 33.631 160.091 33.6557C159.876 33.6804 159.72 33.7133 159.604 33.738C159.546 33.7627 159.43 33.8285 159.249 33.9273C159.067 34.026 158.952 34.0754 158.894 34.0754C158.869 34.0754 158.753 34.0507 158.555 34.0096C158.357 33.9684 158.217 33.9355 158.134 33.9026C157.63 33.738 157.234 33.4994 156.937 33.1949C156.639 32.8904 156.367 32.4954 156.119 32.0264C156.094 31.9688 156.053 31.8207 155.995 31.5903C155.938 31.3599 155.896 31.1788 155.871 31.0636C155.731 30.2819 155.657 29.5083 155.64 28.7431C155.624 27.9778 155.615 27.2043 155.615 26.4225L155.574 26.4307Z" fill="#36D0B8" fill-opacity="0.48"/>
<path d="M169.226 1.31672C169.366 1.31672 169.482 1.29203 169.564 1.23443C169.647 1.17682 169.746 1.15214 169.861 1.15214H169.944C169.944 1.15214 170.06 1.20151 170.2 1.30026C170.34 1.399 170.423 1.44838 170.456 1.44838C170.539 1.50598 170.753 1.61296 171.084 1.78576C171.414 1.95856 171.629 2.06555 171.711 2.12315C171.653 2.26304 171.686 2.41938 171.818 2.60864C171.951 2.79791 172.025 2.89667 172.05 2.92134C172.438 3.28343 172.9 3.72779 173.437 4.23798C173.974 4.74817 174.51 5.29128 175.055 5.85084C175.6 6.4104 176.104 6.97821 176.567 7.546C177.029 8.1138 177.384 8.64044 177.64 9.11771C177.665 9.17531 177.764 9.38928 177.937 9.76781C178.111 10.1463 178.284 10.5742 178.466 11.0433C178.648 11.5123 178.821 11.9649 178.994 12.3846C179.168 12.8042 179.259 13.0676 179.292 13.1828C179.738 14.8286 180.142 16.5895 180.514 18.4575C180.877 20.3255 181.059 22.1194 181.059 23.8145C181.059 23.9544 181.042 24.2013 181.017 24.5716C180.993 24.9419 180.951 25.3204 180.91 25.7236C180.869 26.1268 180.836 26.4807 180.803 26.7934C180.77 27.1061 180.761 27.2707 180.761 27.2954C180.737 27.8796 180.646 28.4721 180.505 29.0728C180.365 29.6735 180.299 30.266 180.299 30.8502L180.423 31.1465C180.423 31.2617 180.382 31.3111 180.299 31.3111C180.159 31.8953 179.969 32.5289 179.729 33.2119C179.49 33.8949 179.234 34.5862 178.953 35.2856C178.672 35.9851 178.375 36.6599 178.053 37.3182C177.731 37.9765 177.434 38.569 177.153 39.0956C177.095 39.1779 177.021 39.3096 176.922 39.4906C176.823 39.6716 176.723 39.8444 176.624 40.0172C176.525 40.1901 176.434 40.3382 176.352 40.4781C176.269 40.618 176.212 40.7002 176.187 40.7332C176.129 40.7908 175.931 41.0129 175.6 41.3997C175.27 41.7865 174.899 42.2144 174.51 42.6752C174.122 43.136 173.734 43.5721 173.354 43.9754C172.975 44.3786 172.735 44.6419 172.619 44.7489C172.595 44.8065 172.479 44.9381 172.281 45.1439C172.083 45.3496 171.868 45.58 171.629 45.8104L170.96 46.4769C170.753 46.6827 170.613 46.8061 170.563 46.8308C170.34 46.9707 170.126 47.0694 169.911 47.127C169.696 47.1846 169.482 47.2505 169.259 47.3327C169.093 47.3904 168.945 47.4891 168.821 47.629C168.697 47.7689 168.524 47.8347 168.292 47.8347H168.21C168.21 47.8347 168.152 47.8183 168.127 47.7936L167.83 47.629C167.574 47.629 167.392 47.6537 167.285 47.7113C167.178 47.7689 167.079 47.8429 166.988 47.9417C166.897 48.0404 166.806 48.1392 166.69 48.2379C166.575 48.3367 166.41 48.4107 166.187 48.4683H166.022C165.939 48.4683 165.84 48.4437 165.724 48.386L165.559 48.3038V47.5056C165.196 47.4233 164.981 47.2916 164.907 47.1106C164.832 46.9295 164.733 46.6827 164.593 46.3782L164.254 45.7117V45.5882C164.42 45.0287 164.626 44.4362 164.866 43.8108C165.105 43.1854 165.444 42.6423 165.898 42.1979C165.923 42.1732 166.022 42.0909 166.195 41.9675C166.368 41.8441 166.476 41.7618 166.534 41.7371C166.649 41.6219 166.938 41.2927 167.417 40.7332C167.896 40.1736 168.408 39.5647 168.97 38.8899C169.531 38.2151 170.051 37.6062 170.522 37.0466C170.993 36.487 171.282 36.1497 171.364 36.0427C171.389 35.9028 171.48 35.6888 171.637 35.3926C171.794 35.0964 171.967 34.7919 172.165 34.471C172.363 34.15 172.545 33.8538 172.71 33.574C172.875 33.2942 172.991 33.0885 173.049 32.9486C173.074 32.8663 173.123 32.7511 173.197 32.6112C173.272 32.4713 173.338 32.315 173.404 32.1504C173.47 31.9858 173.536 31.8377 173.594 31.7143C173.652 31.5908 173.676 31.5086 173.676 31.4839C173.701 31.4592 173.709 31.3769 173.701 31.2535C173.693 31.13 173.676 31.0477 173.676 31.0231C173.701 30.9654 173.759 30.9078 173.842 30.8338C173.924 30.7597 173.982 30.7186 174.007 30.6857C174.147 30.1837 174.271 29.6241 174.387 29.0152C174.502 28.4063 174.593 27.7726 174.684 27.1308C174.775 26.4889 174.841 25.8553 174.89 25.2299C174.94 24.6045 174.973 24.0202 174.973 23.4936C174.973 22.6872 174.956 21.8643 174.932 21.0414C174.907 20.2185 174.808 19.4038 174.634 18.5892C174.61 18.5645 174.577 18.4904 174.552 18.3834C174.527 18.2765 174.494 18.186 174.469 18.1283C174.469 18.1037 174.444 18.0461 174.387 17.9638C174.329 17.8815 174.304 17.8239 174.304 17.7992V17.1738C174.304 17.1738 174.279 17.0915 174.238 17.0092C174.197 16.9269 174.164 16.8693 174.131 16.8446C174.131 16.82 174.073 16.6307 173.965 16.2768C173.858 15.923 173.726 15.5527 173.586 15.1495C173.445 14.7463 173.247 14.1949 172.999 13.4955C172.941 13.298 172.859 13.0182 172.743 12.6561C172.628 12.2941 172.562 12.0801 172.537 12.0307C172.479 11.9484 172.372 11.7839 172.198 11.5452C172.025 11.3066 171.851 11.0597 171.653 10.7882C171.455 10.5166 171.265 10.2615 171.084 10.0147C170.902 9.76781 170.786 9.57854 170.728 9.47157C170.704 9.41396 170.629 9.30698 170.522 9.15886C170.415 9.01075 170.324 8.90376 170.266 8.84616C170.15 8.73096 169.977 8.54992 169.738 8.30305C169.498 8.05618 169.25 7.8011 168.978 7.546C168.705 7.2909 168.474 7.06048 168.268 6.8383C168.061 6.61613 167.913 6.47623 167.83 6.41863C167.69 6.27874 167.434 6.08947 167.054 5.85084C166.674 5.61221 166.294 5.34888 165.898 5.05264C165.501 4.7564 165.155 4.45192 164.849 4.13099C164.543 3.81007 164.387 3.52205 164.387 3.27519C164.387 3.21758 164.411 3.11062 164.453 2.9378C164.494 2.76499 164.56 2.60043 164.643 2.43584C164.725 2.27126 164.816 2.10669 164.915 1.95034C165.014 1.79399 165.122 1.70346 165.229 1.67878C165.254 1.67878 165.394 1.70346 165.65 1.76108C165.906 1.81868 166.055 1.82691 166.112 1.80221C166.137 1.80221 166.278 1.72816 166.509 1.57181C166.74 1.41546 166.88 1.32494 166.905 1.30026C166.74 1.02048 166.682 0.839434 166.74 0.757145C166.798 0.674856 166.905 0.641941 167.054 0.674856C167.202 0.707772 167.368 0.748916 167.541 0.822977C167.714 0.897037 167.822 0.954639 167.88 1.01224C167.904 0.987555 167.962 0.94641 168.045 0.905266C168.127 0.864121 168.185 0.839434 168.21 0.839434C168.325 0.641941 168.416 0.559652 168.507 0.584338C168.598 0.609025 168.672 0.683085 168.738 0.790061C168.804 0.897037 168.887 1.02048 168.97 1.14391C169.052 1.26734 169.151 1.33317 169.267 1.33317L169.226 1.31672Z" fill="#36D0B8" fill-opacity="0.48"/>
<path d="M-4.37685 65.7478C9.79325 65.8959 23.9221 63.995 38.0592 63.2626C52.0311 62.5385 66.0277 62.2752 80.0162 62.0694C108.744 61.6415 137.481 61.5675 166.209 61.5675C170.462 61.5675 170.47 54.9844 166.209 54.9844C137.472 54.9844 108.744 55.0584 80.0162 55.4863C66.0277 55.692 52.0394 55.9554 38.0592 56.6795C23.9221 57.4119 9.79325 59.3127 -4.37685 59.1646C-8.62955 59.1153 -8.62955 65.6984 -4.37685 65.7478Z" fill="#36D0B8" fill-opacity="0.48"/>
</svg>
